GoogleSansCode-ExtraBoldProportional.ufo
<glyph name="plus" format="2">
  <advance width="1200"/>
  <unicode hex="002B"/>
  <outline>
    <contour>
      <point x="429" y="147" type="line"/>
      <point x="771" y="147" type="line"/>
      <point x="771" y="1143" type="line"/>
      <point x="429" y="1143" type="line"/>
    </contour>
    <contour>
      <point x="94" y="485" type="line"/>
      <point x="1106" y="485" type="line"/>
      <point x="1106" y="805" type="line"/>
      <point x="94" y="805" type="line"/>
    </contour>
  </outline>
</glyph>
<glyph name="comma" format="2">
  <advance width="1200"/>
  <unicode hex="002C"/>
  <outline>
    <contour>
      <point x="493" y="-384" type="line"/>
      <point x="714" y="-83" type="line" smooth="yes"/>
      <point x="792" y="23"/>
      <point x="824" y="94"/>
      <point x="824" y="188" type="curve" smooth="yes"/>
      <point x="824" y="309"/>
      <point x="747" y="414"/>
      <point x="603" y="414" type="curve" smooth="yes"/>
      <point x="473" y="414"/>
      <point x="390" y="322"/>
      <point x="390" y="204" type="curve" smooth="yes"/>
      <point x="390" y="74"/>
      <point x="504" y="6"/>
      <point x="591" y="15" type="curve"/>
      <point x="599" y="121" type="line"/>
      <point x="307" y="-250" type="line"/>
    </contour>
  </outline>
</glyph>
<glyph name="period" format="2">
  <advance width="1200"/>
  <unicode hex="002E"/>
  <outline>
    <contour>
      <point x="600" y="-30" type="curve" smooth="yes"/>
      <point x="725" y="-30"/>
      <point x="820" y="65"/>
      <point x="820" y="188" type="curve" smooth="yes"/>
      <point x="820" y="309"/>
      <point x="725" y="406"/>
      <point x="600" y="406" type="curve" smooth="yes"/>
      <point x="477" y="406"/>
      <point x="380" y="309"/>
      <point x="380" y="188" type="curve" smooth="yes"/>
      <point x="380" y="65"/>
      <point x="478" y="-30"/>
    </contour>
  </outline>
</glyph>
<glyph name="zero" format="2">
  <advance width="1200"/>
  <unicode hex="0030"/>
  <outline>
    <contour>
      <point x="226" y="367" type="line"/>
      <point x="1086" y="817" type="line"/>
      <point x="974" y="1065" type="line"/>
      <point x="114" y="615" type="line"/>
    </contour>
    <contour>
      <point x="601" y="-35" type="curve" smooth="yes"/>
      <point x="935" y="-35"/>
      <point x="1132" y="226"/>
      <point x="1132" y="696" type="curve" smooth="yes"/>
      <point x="1132" y="736" type="line" smooth="yes"/>
      <point x="1132" y="1207"/>
      <point x="935" y="1467"/>
      <point x="601" y="1467" type="curve" smooth="yes"/>
      <point x="268" y="1467"/>
      <point x="68" y="1207"/>
      <point x="68" y="736" type="curve" smooth="yes"/>
      <point x="68" y="696" type="line" smooth="yes"/>
      <point x="68" y="226"/>
      <point x="268" y="-35"/>
    </contour>
    <contour>
      <point x="589" y="275" type="curve" smooth="yes"/>
      <point x="457" y="275"/>
      <point x="398" y="406"/>
      <point x="398" y="679" type="curve" smooth="yes"/>
      <point x="398" y="755" type="line" smooth="yes"/>
      <point x="398" y="1026"/>
      <point x="461" y="1157"/>
      <point x="611" y="1157" type="curve" smooth="yes"/>
      <point x="743" y="1157"/>
      <point x="802" y="1028"/>
      <point x="802" y="755" type="curve" smooth="yes"/>
      <point x="802" y="679" type="line" smooth="yes"/>
      <point x="802" y="407"/>
      <point x="739" y="275"/>
    </contour>
  </outline>
</glyph>
<glyph name="one" format="2">
  <advance width="1200"/>
  <unicode hex="0031"/>
  <outline>
    <contour>
      <point x="509" y="120" type="line"/>
      <point x="851" y="120" type="line"/>
      <point x="851" y="1432" type="line"/>
      <point x="608" y="1432" type="line"/>
      <point x="85" y="1180" type="line"/>
      <point x="230" y="888" type="line"/>
      <point x="509" y="1024" type="line"/>
    </contour>
    <contour>
      <point x="137" y="0" type="line"/>
      <point x="1175" y="0" type="line"/>
      <point x="1175" y="316" type="line"/>
      <point x="137" y="316" type="line"/>
    </contour>
  </outline>
</glyph>
<glyph name="four" format="2">
  <advance width="1200"/>
  <unicode hex="0034"/>
  <outline>
    <contour>
      <point x="629" y="0" type="line"/>
      <point x="967" y="0" type="line"/>
      <point x="967" y="1432" type="line"/>
      <point x="619" y="1432" type="line"/>
      <point x="36" y="562" type="line"/>
      <point x="36" y="287" type="line"/>
      <point x="1154" y="287" type="line"/>
      <point x="1154" y="589" type="line"/>
      <point x="855" y="589" type="line"/>
      <point x="776" y="571" type="line"/>
      <point x="361" y="571" type="line"/>
      <point x="361" y="580" type="line"/>
      <point x="642" y="999" type="line"/>
      <point x="682" y="999" type="line"/>
      <point x="651" y="1045" type="line"/>
      <point x="651" y="494" type="line"/>
      <point x="629" y="442" type="line"/>
    </contour>
  </outline>
</glyph>
<glyph name="seven" format="2">
  <advance width="1200"/>
  <unicode hex="0037"/>
  <outline>
    <contour>
      <point x="521" y="-35" type="line"/>
      <point x="1104" y="1162" type="line"/>
      <point x="1104" y="1432" type="line"/>
      <point x="96" y="1432" type="line"/>
      <point x="96" y="1106" type="line"/>
      <point x="694" y="1106" type="line"/>
      <point x="694" y="1097" type="line"/>
      <point x="206" y="112" type="line"/>
    </contour>
  </outline>
</glyph>
<glyph name="eight" format="2">
  <advance width="1200"/>
  <unicode hex="0038"/>
  <outline>
    <contour>
      <point x="600" y="-35" type="curve" smooth="yes"/>
      <point x="907" y="-35"/>
      <point x="1118" y="136"/>
      <point x="1118" y="386" type="curve" smooth="yes"/>
      <point x="1118" y="389" type="line" smooth="yes"/>
      <point x="1118" y="550"/>
      <point x="1021" y="696"/>
      <point x="870" y="756" type="curve"/>
      <point x="870" y="765" type="line"/>
      <point x="995" y="827"/>
      <point x="1075" y="946"/>
      <point x="1075" y="1076" type="curve" smooth="yes"/>
      <point x="1075" y="1078" type="line" smooth="yes"/>
      <point x="1075" y="1311"/>
      <point x="885" y="1467"/>
      <point x="600" y="1467" type="curve" smooth="yes"/>
      <point x="315" y="1467"/>
      <point x="125" y="1311"/>
      <point x="125" y="1078" type="curve" smooth="yes"/>
      <point x="125" y="1076" type="line" smooth="yes"/>
      <point x="125" y="946"/>
      <point x="205" y="825"/>
      <point x="330" y="765" type="curve"/>
      <point x="330" y="756" type="line"/>
      <point x="178" y="696"/>
      <point x="82" y="552"/>
      <point x="82" y="389" type="curve" smooth="yes"/>
      <point x="82" y="386" type="line" smooth="yes"/>
      <point x="82" y="136"/>
      <point x="293" y="-35"/>
    </contour>
    <contour>
      <point x="600" y="269" type="curve" smooth="yes"/>
      <point x="493" y="269"/>
      <point x="426" y="335"/>
      <point x="426" y="439" type="curve" smooth="yes"/>
      <point x="426" y="453" type="line" smooth="yes"/>
      <point x="426" y="557"/>
      <point x="493" y="623"/>
      <point x="600" y="623" type="curve" smooth="yes"/>
      <point x="707" y="623"/>
      <point x="774" y="557"/>
      <point x="774" y="453" type="curve" smooth="yes"/>
      <point x="774" y="439" type="line" smooth="yes"/>
      <point x="774" y="335"/>
      <point x="707" y="269"/>
    </contour>
    <contour>
      <point x="600" y="886" type="curve" smooth="yes"/>
      <point x="514" y="886"/>
      <point x="459" y="939"/>
      <point x="459" y="1021" type="curve" smooth="yes"/>
      <point x="459" y="1033" type="line" smooth="yes"/>
      <point x="459" y="1115"/>
      <point x="514" y="1169"/>
      <point x="600" y="1169" type="curve" smooth="yes"/>
      <point x="686" y="1169"/>
      <point x="741" y="1115"/>
      <point x="741" y="1033" type="curve" smooth="yes"/>
      <point x="741" y="1021" type="line" smooth="yes"/>
      <point x="741" y="938"/>
      <point x="686" y="886"/>
    </contour>
  </outline>
</glyph>
<glyph name="equal" format="2">
  <advance width="1200"/>
  <unicode hex="003D"/>
  <outline>
    <contour>
      <point x="104" y="738" type="line"/>
      <point x="1096" y="738" type="line"/>
      <point x="1096" y="1046" type="line"/>
      <point x="104" y="1046" type="line"/>
    </contour>
    <contour>
      <point x="104" y="244" type="line"/>
      <point x="1096" y="244" type="line"/>
      <point x="1096" y="552" type="line"/>
      <point x="104" y="552" type="line"/>
    </contour>
  </outline>
</glyph>
<glyph name="greater" format="2">
  <advance width="1200"/>
  <unicode hex="003E"/>
  <outline>
    <contour>
      <point x="120" y="9" type="line"/>
      <point x="1110" y="518" type="line"/>
      <point x="1110" y="771" type="line"/>
      <point x="120" y="1281" type="line"/>
      <point x="120" y="933" type="line"/>
      <point x="716" y="649" type="line"/>
      <point x="716" y="641" type="line"/>
      <point x="120" y="357" type="line"/>
    </contour>
  </outline>
</glyph>
<glyph name="A" format="2">
  <advance width="1200"/>
  <unicode hex="0041"/>
  <anchor x="597" y="26" name="bottom"/>
  <anchor x="1198" y="0" name="ogonek"/>
  <anchor x="602" y="1432" name="top"/>
  <outline>
    <contour>
      <point x="2" y="0" type="line"/>
      <point x="351" y="0" type="line"/>
      <point x="548" y="826" type="line"/>
      <point x="592" y="1054" type="line"/>
      <point x="599" y="1054" type="line"/>
      <point x="649" y="826" type="line"/>
      <point x="842" y="0" type="line"/>
      <point x="1198" y="0" type="line"/>
      <point x="757" y="1432" type="line"/>
      <point x="447" y="1432" type="line"/>
    </contour>
    <contour>
      <point x="209" y="245" type="line"/>
      <point x="978" y="245" type="line"/>
      <point x="887" y="511" type="line"/>
      <point x="293" y="511" type="line"/>
    </contour>
  </outline>
</glyph>
<glyph name="G" format="2">
  <advance width="1200"/>
  <unicode hex="0047"/>
  <anchor x="651" y="0" name="bottom"/>
  <anchor x="643" y="1432" name="top"/>
  <outline>
    <contour>
      <point x="650" y="-35" type="curve" smooth="yes"/>
      <point x="984" y="-35"/>
      <point x="1170" y="190"/>
      <point x="1170" y="594" type="curve" smooth="yes"/>
      <point x="1170" y="828" type="line"/>
      <point x="591" y="828" type="line"/>
      <point x="591" y="557" type="line"/>
      <point x="851" y="557" type="line"/>
      <point x="851" y="516" type="line" smooth="yes"/>
      <point x="851" y="373"/>
      <point x="777" y="285"/>
      <point x="652" y="285" type="curve" smooth="yes"/>
      <point x="490" y="285"/>
      <point x="405" y="425"/>
      <point x="405" y="691" type="curve" smooth="yes"/>
      <point x="405" y="740" type="line" smooth="yes"/>
      <point x="405" y="1002"/>
      <point x="487" y="1141"/>
      <point x="643" y="1141" type="curve" smooth="yes"/>
      <point x="741" y="1141"/>
      <point x="794" y="1094"/>
      <point x="822" y="981" type="curve"/>
      <point x="1135" y="1082" type="line"/>
      <point x="1069" y="1333"/>
      <point x="897" y="1467"/>
      <point x="642" y="1467" type="curve" smooth="yes"/>
      <point x="282" y="1467"/>
      <point x="54" y="1183"/>
      <point x="54" y="735" type="curve" smooth="yes"/>
      <point x="54" y="696" type="line" smooth="yes"/>
      <point x="54" y="246"/>
      <point x="283" y="-35"/>
    </contour>
  </outline>
</glyph>
<glyph name="H" format="2">
  <advance width="1200"/>
  <unicode hex="0048"/>
  <outline>
    <contour>
      <point x="745" y="0" type="line"/>
      <point x="1093" y="0" type="line"/>
      <point x="1093" y="1432" type="line"/>
      <point x="745" y="1432" type="line"/>
    </contour>
    <contour>
      <point x="107" y="0" type="line"/>
      <point x="455" y="0" type="line"/>
      <point x="455" y="1432" type="line"/>
      <point x="107" y="1432" type="line"/>
    </contour>
    <contour>
      <point x="329" y="566" type="line"/>
      <point x="886" y="566" type="line"/>
      <point x="886" y="892" type="line"/>
      <point x="329" y="892" type="line"/>
    </contour>
  </outline>
</glyph>
<glyph name="L" format="2">
  <advance width="1200"/>
  <unicode hex="004C"/>
  <anchor x="634" y="0" name="bottom"/>
  <anchor x="322" y="1432" name="top"/>
  <outline>
    <contour>
      <point x="148" y="0" type="line"/>
      <point x="1120" y="0" type="line"/>
      <point x="1120" y="328" type="line"/>
      <point x="496" y="328" type="line"/>
      <point x="496" y="1432" type="line"/>
      <point x="148" y="1432" type="line"/>
    </contour>
  </outline>
</glyph>
<glyph name="P" format="2">
  <advance width="1200"/>
  <unicode hex="0050"/>
  <outline>
    <contour>
      <point x="110" y="0" type="line"/>
      <point x="454" y="0" type="line"/>
      <point x="454" y="1118" type="line"/>
      <point x="576" y="1118" type="line" smooth="yes"/>
      <point x="693" y="1118"/>
      <point x="766" y="1052"/>
      <point x="766" y="946" type="curve" smooth="yes"/>
      <point x="766" y="916" type="line" smooth="yes"/>
      <point x="766" y="810"/>
      <point x="693" y="744"/>
      <point x="576" y="744" type="curve" smooth="yes"/>
      <point x="311" y="744" type="line"/>
      <point x="311" y="430" type="line"/>
      <point x="578" y="430" type="line" smooth="yes"/>
      <point x="914" y="430"/>
      <point x="1112" y="614"/>
      <point x="1112" y="921" type="curve" smooth="yes"/>
      <point x="1112" y="941" type="line" smooth="yes"/>
      <point x="1112" y="1248"/>
      <point x="914" y="1432"/>
      <point x="578" y="1432" type="curve" smooth="yes"/>
      <point x="110" y="1432" type="line"/>
    </contour>
  </outline>
</glyph>
<glyph name="Q" format="2">
  <advance width="1200"/>
  <unicode hex="0051"/>
  <outline>
    <contour>
      <point x="600" y="25" type="curve" smooth="yes"/>
      <point x="953" y="25"/>
      <point x="1151" y="275"/>
      <point x="1151" y="693" type="curve" smooth="yes"/>
      <point x="1151" y="739" type="line" smooth="yes"/>
      <point x="1151" y="1195"/>
      <point x="945" y="1467"/>
      <point x="600" y="1467" type="curve" smooth="yes"/>
      <point x="255" y="1467"/>
      <point x="49" y="1195"/>
      <point x="49" y="739" type="curve" smooth="yes"/>
      <point x="49" y="693" type="line" smooth="yes"/>
      <point x="49" y="275"/>
      <point x="263" y="25"/>
    </contour>
    <contour>
      <point x="1046" y="-434" type="curve" smooth="yes"/>
      <point x="1107" y="-434"/>
      <point x="1162" y="-421"/>
      <point x="1219" y="-396" type="curve"/>
      <point x="1146" y="-80" type="line"/>
      <point x="1114" y="-95"/>
      <point x="1088" y="-102"/>
      <point x="1058" y="-102" type="curve" smooth="yes"/>
      <point x="994" y="-102"/>
      <point x="946" y="-73"/>
      <point x="867" y="28" type="curve" smooth="yes"/>
      <point x="766" y="157"/>
      <point x="670" y="217"/>
      <point x="517" y="217" type="curve" smooth="yes"/>
      <point x="273" y="217"/>
      <point x="107" y="67"/>
      <point x="61" y="-214" type="curve"/>
      <point x="401" y="-274" type="line"/>
      <point x="425" y="-112"/>
      <point x="464" y="-35"/>
      <point x="533" y="-35" type="curve" smooth="yes"/>
      <point x="581" y="-35"/>
      <point x="604" y="-58"/>
      <point x="692" y="-197" type="curve" smooth="yes"/>
      <point x="803" y="-372"/>
      <point x="904" y="-434"/>
    </contour>
    <contour>
      <point x="600" y="299" type="curve" smooth="yes"/>
      <point x="468" y="299"/>
      <point x="400" y="418"/>
      <point x="400" y="680" type="curve" smooth="yes"/>
      <point x="400" y="736" type="line" smooth="yes"/>
      <point x="400" y="998"/>
      <point x="468" y="1133"/>
      <point x="600" y="1133" type="curve" smooth="yes"/>
      <point x="732" y="1133"/>
      <point x="800" y="998"/>
      <point x="800" y="736" type="curve" smooth="yes"/>
      <point x="800" y="680" type="line" smooth="yes"/>
      <point x="800" y="418"/>
      <point x="732" y="299"/>
    </contour>
  </outline>
</glyph>
<glyph name="R" format="2">
  <advance width="1200"/>
  <unicode hex="0052"/>
  <anchor x="526" y="1432" name="top"/>
  <outline>
    <contour>
      <point x="100" y="0" type="line"/>
      <point x="442" y="0" type="line"/>
      <point x="442" y="1118" type="line"/>
      <point x="570" y="1118" type="line" smooth="yes"/>
      <point x="683" y="1118"/>
      <point x="748" y="1054"/>
      <point x="748" y="960" type="curve" smooth="yes"/>
      <point x="748" y="938" type="line" smooth="yes"/>
      <point x="748" y="844"/>
      <point x="683" y="780"/>
      <point x="570" y="780" type="curve" smooth="yes"/>
      <point x="301" y="780" type="line"/>
      <point x="301" y="490" type="line"/>
      <point x="572" y="490" type="line" smooth="yes"/>
      <point x="908" y="490"/>
      <point x="1094" y="673"/>
      <point x="1094" y="955" type="curve" smooth="yes"/>
      <point x="1094" y="967" type="line" smooth="yes"/>
      <point x="1094" y="1249"/>
      <point x="908" y="1432"/>
      <point x="572" y="1432" type="curve" smooth="yes"/>
      <point x="100" y="1432" type="line"/>
    </contour>
    <contour>
      <point x="784" y="0" type="line"/>
      <point x="1174" y="0" type="line"/>
      <point x="828" y="618" type="line"/>
      <point x="449" y="618" type="line"/>
    </contour>
  </outline>
</glyph>
<glyph name="S" format="2">
  <advance width="1200"/>
  <unicode hex="0053"/>
  <anchor x="641" y="0" name="bottom"/>
  <anchor x="624" y="1432" name="top"/>
  <outline>
    <contour>
      <point x="636" y="-35" type="curve" smooth="yes"/>
      <point x="941" y="-35"/>
      <point x="1144" y="136"/>
      <point x="1144" y="392" type="curve" smooth="yes"/>
      <point x="1144" y="400" type="line" smooth="yes"/>
      <point x="1144" y="609"/>
      <point x="1038" y="746"/>
      <point x="807" y="835" type="curve" smooth="yes"/>
      <point x="613" y="910" type="line" smooth="yes"/>
      <point x="511" y="950"/>
      <point x="473" y="985"/>
      <point x="473" y="1041" type="curve" smooth="yes"/>
      <point x="473" y="1045" type="line" smooth="yes"/>
      <point x="473" y="1112"/>
      <point x="531" y="1153"/>
      <point x="625" y="1153" type="curve" smooth="yes"/>
      <point x="732" y="1153"/>
      <point x="796" y="1107"/>
      <point x="822" y="1011" type="curve"/>
      <point x="1140" y="1096" type="line"/>
      <point x="1070" y="1338"/>
      <point x="889" y="1467"/>
      <point x="623" y="1467" type="curve" smooth="yes"/>
      <point x="329" y="1467"/>
      <point x="127" y="1289"/>
      <point x="127" y="1032" type="curve" smooth="yes"/>
      <point x="127" y="1028" type="line" smooth="yes"/>
      <point x="127" y="846"/>
      <point x="231" y="710"/>
      <point x="431" y="633" type="curve" smooth="yes"/>
      <point x="625" y="558" type="line" smooth="yes"/>
      <point x="753" y="509"/>
      <point x="798" y="468"/>
      <point x="798" y="401" type="curve" smooth="yes"/>
      <point x="798" y="397" type="line" smooth="yes"/>
      <point x="798" y="322"/>
      <point x="741" y="279"/>
      <point x="637" y="279" type="curve" smooth="yes"/>
      <point x="491" y="279"/>
      <point x="391" y="359"/>
      <point x="363" y="499" type="curve"/>
      <point x="44" y="420" type="line"/>
      <point x="104" y="142"/>
      <point x="334" y="-35"/>
    </contour>
  </outline>
</glyph>
<glyph name="W" format="2">
  <advance width="1200"/>
  <unicode hex="0057"/>
  <anchor x="595" y="1432" name="top"/>
  <outline>
    <contour>
      <point x="199" y="0" type="line"/>
      <point x="475" y="0" type="line"/>
      <point x="558" y="467" type="line"/>
      <point x="597" y="729" type="line"/>
      <point x="603" y="729" type="line"/>
      <point x="642" y="467" type="line"/>
      <point x="725" y="0" type="line"/>
      <point x="1001" y="0" type="line"/>
      <point x="1181" y="1432" type="line"/>
      <point x="853" y="1432" type="line"/>
      <point x="807" y="506" type="line"/>
      <point x="801" y="506" type="line"/>
      <point x="758" y="781" type="line"/>
      <point x="691" y="1150" type="line"/>
      <point x="509" y="1150" type="line"/>
      <point x="442" y="781" type="line"/>
      <point x="399" y="506" type="line"/>
      <point x="393" y="506" type="line"/>
      <point x="336" y="1432" type="line"/>
      <point x="19" y="1432" type="line"/>
    </contour>
  </outline>
</glyph>
<glyph name="Z" format="2">
  <advance width="1200"/>
  <unicode hex="005A"/>
  <anchor x="605" y="1432" name="top"/>
  <outline>
    <contour>
      <point x="92" y="0" type="line"/>
      <point x="1108" y="0" type="line"/>
      <point x="1108" y="324" type="line"/>
      <point x="506" y="324" type="line"/>
      <point x="1095" y="1141" type="line"/>
      <point x="1095" y="1432" type="line"/>
      <point x="115" y="1432" type="line"/>
      <point x="115" y="1108" type="line"/>
      <point x="681" y="1108" type="line"/>
      <point x="92" y="291" type="line"/>
    </contour>
  </outline>
</glyph>
<glyph name="bracketright" format="2">
  <advance width="1200"/>
  <unicode hex="005D"/>
  <outline>
    <contour>
      <point x="130" y="-267" type="line"/>
      <point x="904" y="-267" type="line"/>
      <point x="904" y="1585" type="line"/>
      <point x="130" y="1585" type="line"/>
      <point x="130" y="1303" type="line"/>
      <point x="557" y="1303" type="line"/>
      <point x="557" y="15" type="line"/>
      <point x="130" y="15" type="line"/>
    </contour>
  </outline>
</glyph>
<glyph name="asciicircum" format="2">
  <advance width="1200"/>
  <unicode hex="005E"/>
  <outline>
    <contour>
      <point x="16" y="628" type="line"/>
      <point x="384" y="628" type="line"/>
      <point x="595" y="1051" type="line"/>
      <point x="606" y="1051" type="line"/>
      <point x="816" y="628" type="line"/>
      <point x="1184" y="628" type="line"/>
      <point x="748" y="1432" type="line"/>
      <point x="452" y="1432" type="line"/>
    </contour>
  </outline>
</glyph>
<glyph name="grave" format="2">
  <advance width="1200"/>
  <unicode hex="0060"/>
  <outline>
    <contour>
      <point x="576" y="882" type="line"/>
      <point x="878" y="882" type="line"/>
      <point x="640" y="1460" type="line"/>
      <point x="248" y="1460" type="line"/>
    </contour>
  </outline>
</glyph>
<glyph name="f" format="2">
  <advance width="1200"/>
  <unicode hex="0066"/>
  <outline>
    <contour>
      <point x="347" y="0" type="line"/>
      <point x="691" y="0" type="line"/>
      <point x="691" y="865" type="line"/>
      <point x="676" y="949" type="line"/>
      <point x="676" y="1084" type="line" smooth="yes"/>
      <point x="676" y="1170"/>
      <point x="727" y="1215"/>
      <point x="815" y="1215" type="curve" smooth="yes"/>
      <point x="881" y="1215"/>
      <point x="929" y="1193"/>
      <point x="986" y="1148" type="curve"/>
      <point x="1154" y="1375" type="line"/>
      <point x="1051" y="1456"/>
      <point x="942" y="1495"/>
      <point x="785" y="1495" type="curve" smooth="yes"/>
      <point x="506" y="1495"/>
      <point x="347" y="1350"/>
      <point x="347" y="1102" type="curve" smooth="yes"/>
    </contour>
    <contour>
      <point x="99" y="756" type="line"/>
      <point x="1103" y="756" type="line"/>
      <point x="1103" y="1008" type="line"/>
      <point x="99" y="1008" type="line"/>
    </contour>
  </outline>
</glyph>
<glyph name="h" format="2">
  <advance width="1200"/>
  <unicode hex="0068"/>
  <outline>
    <contour>
      <point x="122" y="0" type="line"/>
      <point x="465" y="0" type="line"/>
      <point x="465" y="618" type="line" smooth="yes"/>
      <point x="465" y="730"/>
      <point x="531" y="806"/>
      <point x="628" y="806" type="curve" smooth="yes"/>
      <point x="712" y="806"/>
      <point x="757" y="752"/>
      <point x="757" y="652" type="curve" smooth="yes"/>
      <point x="757" y="0" type="line"/>
      <point x="1100" y="0" type="line"/>
      <point x="1100" y="731" type="line" smooth="yes"/>
      <point x="1100" y="951"/>
      <point x="982" y="1088"/>
      <point x="794" y="1088" type="curve" smooth="yes"/>
      <point x="664" y="1088"/>
      <point x="553" y="1027"/>
      <point x="474" y="916" type="curve"/>
      <point x="465" y="916" type="line"/>
      <point x="465" y="1460" type="line"/>
      <point x="122" y="1460" type="line"/>
    </contour>
  </outline>
</glyph>
<glyph name="i" format="2">
  <advance width="1200"/>
  <unicode hex="0069"/>
  <anchor x="655" y="0" name="bottom"/>
  <anchor x="807" y="0" name="ogonek"/>
  <outline>
    <contour>
      <point x="487" y="83" type="line"/>
      <point x="823" y="83" type="line"/>
      <point x="823" y="1054" type="line"/>
      <point x="487" y="1054" type="line"/>
    </contour>
    <contour>
      <point x="155" y="0" type="line"/>
      <point x="1126" y="0" type="line"/>
      <point x="1126" y="250" type="line"/>
      <point x="155" y="250" type="line"/>
    </contour>
    <contour>
      <point x="175" y="804" type="line"/>
      <point x="787" y="804" type="line"/>
      <point x="787" y="1054" type="line"/>
      <point x="175" y="1054" type="line"/>
    </contour>
    <contour>
      <point x="622" y="1235" type="curve" smooth="yes"/>
      <point x="744" y="1235"/>
      <point x="833" y="1327"/>
      <point x="833" y="1443" type="curve" smooth="yes"/>
      <point x="833" y="1564"/>
      <point x="744" y="1650"/>
      <point x="622" y="1650" type="curve" smooth="yes"/>
      <point x="504" y="1650"/>
      <point x="409" y="1564"/>
      <point x="409" y="1443" type="curve" smooth="yes"/>
      <point x="409" y="1327"/>
      <point x="504" y="1235"/>
    </contour>
  </outline>
</glyph>
<glyph name="j" format="2">
  <advance width="1200"/>
  <unicode hex="006A"/>
  <outline>
    <contour>
      <point x="437" y="-451" type="curve" smooth="yes"/>
      <point x="737" y="-451"/>
      <point x="917" y="-272"/>
      <point x="917" y="26" type="curve" smooth="yes"/>
      <point x="917" y="1054" type="line"/>
      <point x="573" y="1054" type="line"/>
      <point x="573" y="14" type="line" smooth="yes"/>
      <point x="573" y="-92"/>
      <point x="518" y="-153"/>
      <point x="420" y="-153" type="curve" smooth="yes"/>
      <point x="351" y="-153"/>
      <point x="291" y="-128"/>
      <point x="220" y="-75" type="curve"/>
      <point x="58" y="-327" type="line"/>
      <point x="168" y="-408"/>
      <point x="297" y="-451"/>
    </contour>
    <contour>
      <point x="190" y="804" type="line"/>
      <point x="829" y="804" type="line"/>
      <point x="829" y="1054" type="line"/>
      <point x="190" y="1054" type="line"/>
    </contour>
    <contour>
      <point x="717" y="1235" type="curve" smooth="yes"/>
      <point x="837" y="1235"/>
      <point x="928" y="1325"/>
      <point x="928" y="1443" type="curve" smooth="yes"/>
      <point x="928" y="1564"/>
      <point x="839" y="1650"/>
      <point x="717" y="1650" type="curve" smooth="yes"/>
      <point x="596" y="1650"/>
      <point x="504" y="1562"/>
      <point x="504" y="1443" type="curve" smooth="yes"/>
      <point x="504" y="1327"/>
      <point x="598" y="1235"/>
    </contour>
  </outline>
</glyph>
<glyph name="l" format="2">
  <advance width="1200"/>
  <unicode hex="006C"/>
  <anchor x="753" y="-35" name="bottom"/>
  <anchor x="515" y="1460" name="top"/>
  <outline>
    <contour>
      <point x="795" y="-35" type="curve" smooth="yes"/>
      <point x="941" y="-35"/>
      <point x="1048" y="4"/>
      <point x="1146" y="93" type="curve"/>
      <point x="970" y="332" type="line"/>
      <point x="922" y="287"/>
      <point x="881" y="269"/>
      <point x="830" y="269" type="curve" smooth="yes"/>
      <point x="738" y="269"/>
      <point x="687" y="326"/>
      <point x="687" y="431" type="curve" smooth="yes"/>
      <point x="687" y="1460" type="line"/>
      <point x="343" y="1460" type="line"/>
      <point x="343" y="409" type="line" smooth="yes"/>
      <point x="343" y="130"/>
      <point x="510" y="-35"/>
    </contour>
    <contour>
      <point x="58" y="1200" type="line"/>
      <point x="614" y="1200" type="line"/>
      <point x="614" y="1460" type="line"/>
      <point x="58" y="1460" type="line"/>
    </contour>
  </outline>
</glyph>
<glyph name="n" format="2">
  <advance width="1200"/>
  <unicode hex="006E"/>
  <anchor x="631" y="16" name="bottom"/>
  <anchor x="615" y="1054" name="top"/>
  <outline>
    <contour>
      <point x="122" y="0" type="line"/>
      <point x="465" y="0" type="line"/>
      <point x="465" y="619" type="line" smooth="yes"/>
      <point x="465" y="730"/>
      <point x="529" y="807"/>
      <point x="628" y="807" type="curve" smooth="yes"/>
      <point x="715" y="807"/>
      <point x="757" y="750"/>
      <point x="757" y="653" type="curve" smooth="yes"/>
      <point x="757" y="0" type="line"/>
      <point x="1100" y="0" type="line"/>
      <point x="1100" y="732" type="line" smooth="yes"/>
      <point x="1100" y="951"/>
      <point x="982" y="1089"/>
      <point x="794" y="1089" type="curve" smooth="yes"/>
      <point x="652" y="1089"/>
      <point x="537" y="1019"/>
      <point x="458" y="895" type="curve"/>
      <point x="449" y="895" type="line"/>
      <point x="449" y="1054" type="line"/>
      <point x="122" y="1054" type="line"/>
    </contour>
  </outline>
</glyph>
<glyph name="o" format="2">
  <advance width="1200"/>
  <unicode hex="006F"/>
  <anchor x="600" y="-35" name="bottom"/>
  <anchor x="850" y="23" name="ogonek"/>
  <anchor x="600" y="1054" name="top"/>
  <outline>
    <contour>
      <point x="600" y="-35" type="curve" smooth="yes"/>
      <point x="911" y="-35"/>
      <point x="1134" y="198"/>
      <point x="1134" y="517" type="curve" smooth="yes"/>
      <point x="1134" y="537" type="line" smooth="yes"/>
      <point x="1134" y="857"/>
      <point x="911" y="1089"/>
      <point x="600" y="1089" type="curve" smooth="yes"/>
      <point x="289" y="1089"/>
      <point x="66" y="857"/>
      <point x="66" y="537" type="curve" smooth="yes"/>
      <point x="66" y="517" type="line" smooth="yes"/>
      <point x="66" y="198"/>
      <point x="289" y="-35"/>
    </contour>
    <contour>
      <point x="600" y="263" type="curve" smooth="yes"/>
      <point x="482" y="263"/>
      <point x="404" y="365"/>
      <point x="404" y="521" type="curve" smooth="yes"/>
      <point x="404" y="533" type="line" smooth="yes"/>
      <point x="404" y="689"/>
      <point x="482" y="791"/>
      <point x="600" y="791" type="curve" smooth="yes"/>
      <point x="718" y="791"/>
      <point x="796" y="689"/>
      <point x="796" y="533" type="curve" smooth="yes"/>
      <point x="796" y="521" type="line" smooth="yes"/>
      <point x="796" y="365"/>
      <point x="718" y="263"/>
    </contour>
  </outline>
</glyph>
<glyph name="r" format="2">
  <advance width="1200"/>
  <unicode hex="0072"/>
  <anchor x="654" y="1054" name="top"/>
  <outline>
    <contour>
      <point x="272" y="130" type="line"/>
      <point x="604" y="130" type="line"/>
      <point x="604" y="539" type="line" smooth="yes"/>
      <point x="604" y="706"/>
      <point x="674" y="790"/>
      <point x="810" y="790" type="curve" smooth="yes"/>
      <point x="875" y="790"/>
      <point x="920" y="769"/>
      <point x="982" y="707" type="curve"/>
      <point x="1182" y="951" type="line"/>
      <point x="1092" y="1051"/>
      <point x="1016" y="1089"/>
      <point x="911" y="1089" type="curve" smooth="yes"/>
      <point x="753" y="1089"/>
      <point x="633" y="990"/>
      <point x="572" y="807" type="curve"/>
      <point x="556" y="807" type="line"/>
      <point x="556" y="1054" type="line"/>
      <point x="272" y="1054" type="line"/>
    </contour>
    <contour>
      <point x="72" y="0" type="line"/>
      <point x="944" y="0" type="line"/>
      <point x="944" y="252" type="line"/>
      <point x="72" y="252" type="line"/>
    </contour>
    <contour>
      <point x="92" y="802" type="line"/>
      <point x="423" y="802" type="line"/>
      <point x="423" y="1054" type="line"/>
      <point x="92" y="1054" type="line"/>
    </contour>
  </outline>
</glyph>
<glyph name="s" format="2">
  <advance width="1200"/>
  <unicode hex="0073"/>
  <guideline x="1071" y="311" angle="90"/>
  <guideline x="129" y="284" angle="90"/>
  <anchor x="633" y="0" name="bottom"/>
  <anchor x="610" y="1054" name="top"/>
  <outline>
    <contour>
      <point x="642" y="-34" type="curve" smooth="yes"/>
      <point x="894" y="-34"/>
      <point x="1060" y="98"/>
      <point x="1060" y="299" type="curve" smooth="yes"/>
      <point x="1060" y="303" type="line" smooth="yes"/>
      <point x="1060" y="481"/>
      <point x="967" y="587"/>
      <point x="758" y="647" type="curve" smooth="yes"/>
      <point x="605" y="691" type="line" smooth="yes"/>
      <point x="520" y="715"/>
      <point x="496" y="732"/>
      <point x="496" y="767" type="curve" smooth="yes"/>
      <point x="496" y="767" type="line" smooth="yes"/>
      <point x="496" y="805"/>
      <point x="534" y="827"/>
      <point x="600" y="827" type="curve" smooth="yes"/>
      <point x="694" y="827"/>
      <point x="750" y="793"/>
      <point x="769" y="726" type="curve"/>
      <point x="1054" y="814" type="line"/>
      <point x="1006" y="992"/>
      <point x="854" y="1089"/>
      <point x="620" y="1089" type="curve" smooth="yes"/>
      <point x="358" y="1089"/>
      <point x="188" y="954"/>
      <point x="188" y="746" type="curve" smooth="yes"/>
      <point x="188" y="744" type="line" smooth="yes"/>
      <point x="188" y="589"/>
      <point x="280" y="483"/>
      <point x="461" y="431" type="curve" smooth="yes"/>
      <point x="614" y="387" type="line" smooth="yes"/>
      <point x="728" y="354"/>
      <point x="750" y="340"/>
      <point x="750" y="301" type="curve" smooth="yes"/>
      <point x="750" y="299" type="line" smooth="yes"/>
      <point x="750" y="256"/>
      <point x="709" y="232"/>
      <point x="638" y="232" type="curve" smooth="yes"/>
      <point x="525" y="232"/>
      <point x="447" y="283"/>
      <point x="424" y="372" type="curve"/>
      <point x="139" y="284" type="line"/>
      <point x="193" y="79"/>
      <point x="372" y="-34"/>
    </contour>
  </outline>
</glyph>
<glyph name="t" format="2">
  <advance width="1200"/>
  <unicode hex="0074"/>
  <anchor x="699" y="-35" name="bottom"/>
  <outline>
    <contour>
      <point x="780" y="-35" type="curve" smooth="yes"/>
      <point x="917" y="-35"/>
      <point x="1034" y="5"/>
      <point x="1128" y="82" type="curve"/>
      <point x="970" y="333" type="line"/>
      <point x="918" y="287"/>
      <point x="873" y="269"/>
      <point x="818" y="269" type="curve" smooth="yes"/>
      <point x="716" y="269"/>
      <point x="666" y="331"/>
      <point x="666" y="455" type="curve" smooth="yes"/>
      <point x="666" y="1326" type="line"/>
      <point x="324" y="1326" type="line"/>
      <point x="324" y="433" type="line" smooth="yes"/>
      <point x="324" y="134"/>
      <point x="487" y="-35"/>
    </contour>
    <contour>
      <point x="88" y="802" type="line"/>
      <point x="1067" y="802" type="line"/>
      <point x="1067" y="1054" type="line"/>
      <point x="88" y="1054" type="line"/>
    </contour>
  </outline>
</glyph>
<glyph name="u" format="2">
  <advance width="1200"/>
  <unicode hex="0075"/>
  <anchor x="616" y="-35" name="bottom"/>
  <anchor x="1067" y="0" name="ogonek"/>
  <anchor x="597" y="1054" name="top"/>
  <outline>
    <contour>
      <point x="430" y="-35" type="curve" smooth="yes"/>
      <point x="565" y="-35"/>
      <point x="667" y="47"/>
      <point x="729" y="160" type="curve"/>
      <point x="740" y="160" type="line"/>
      <point x="740" y="0" type="line"/>
      <point x="1067" y="0" type="line"/>
      <point x="1067" y="1054" type="line"/>
      <point x="724" y="1054" type="line"/>
      <point x="724" y="438" type="line" smooth="yes"/>
      <point x="724" y="320"/>
      <point x="675" y="249"/>
      <point x="594" y="249" type="curve" smooth="yes"/>
      <point x="517" y="249"/>
      <point x="470" y="304"/>
      <point x="470" y="399" type="curve" smooth="yes"/>
      <point x="470" y="1054" type="line"/>
      <point x="128" y="1054" type="line"/>
      <point x="128" y="318" type="line" smooth="yes"/>
      <point x="128" y="101"/>
      <point x="240" y="-35"/>
    </contour>
  </outline>
</glyph>
<glyph name="w" format="2">
  <advance width="1200"/>
  <unicode hex="0077"/>
  <anchor x="610" y="1054" name="top"/>
  <outline>
    <contour>
      <point x="212" y="0" type="line"/>
      <point x="505" y="0" type="line"/>
      <point x="581" y="469" type="line"/>
      <point x="596" y="582" type="line"/>
      <point x="603" y="582" type="line"/>
      <point x="616" y="469" type="line"/>
      <point x="693" y="0" type="line"/>
      <point x="987" y="0" type="line"/>
      <point x="1207" y="1054" type="line"/>
      <point x="929" y="1054" type="line"/>
      <point x="847" y="501" type="line"/>
      <point x="832" y="382" type="line"/>
      <point x="825" y="382" type="line"/>
      <point x="811" y="501" type="line"/>
      <point x="743" y="933" type="line"/>
      <point x="476" y="933" type="line"/>
      <point x="407" y="500" type="line"/>
      <point x="392" y="382" type="line"/>
      <point x="385" y="382" type="line"/>
      <point x="371" y="499" type="line"/>
      <point x="291" y="1054" type="line"/>
      <point x="-7" y="1054" type="line"/>
    </contour>
  </outline>
</glyph>
<glyph name="x" format="2">
  <advance width="1200"/>
  <unicode hex="0078"/>
  <outline>
    <contour>
      <point x="788" y="0" type="line"/>
      <point x="1152" y="0" type="line"/>
      <point x="733" y="634" type="line"/>
      <point x="680" y="655" type="line"/>
      <point x="427" y="1054" type="line"/>
      <point x="62" y="1054" type="line"/>
      <point x="436" y="490" type="line"/>
      <point x="490" y="469" type="line"/>
    </contour>
    <contour>
      <point x="48" y="0" type="line"/>
      <point x="395" y="0" type="line"/>
      <point x="690" y="452" type="line"/>
      <point x="738" y="461" type="line"/>
      <point x="1138" y="1054" type="line"/>
      <point x="791" y="1054" type="line"/>
      <point x="507" y="619" type="line"/>
      <point x="460" y="610" type="line"/>
    </contour>
  </outline>
</glyph>
<glyph name="braceright" format="2">
  <advance width="1200"/>
  <unicode hex="007D"/>
  <outline>
    <contour>
      <point x="414" y="-351" type="curve" smooth="yes"/>
      <point x="673" y="-351"/>
      <point x="820" y="-254"/>
      <point x="820" y="-83" type="curve" smooth="yes"/>
      <point x="820" y="-1"/>
      <point x="796" y="68"/>
      <point x="709" y="149" type="curve" smooth="yes"/>
      <point x="695" y="162" type="line" smooth="yes"/>
      <point x="638" y="215"/>
      <point x="625" y="249"/>
      <point x="625" y="289" type="curve" smooth="yes"/>
      <point x="625" y="343"/>
      <point x="669" y="374"/>
      <point x="761" y="384" type="curve" smooth="yes"/>
      <point x="1147" y="425" type="line"/>
      <point x="1147" y="904" type="line"/>
      <point x="761" y="945" type="line" smooth="yes"/>
      <point x="670" y="955"/>
      <point x="625" y="986"/>
      <point x="625" y="1041" type="curve" smooth="yes"/>
      <point x="625" y="1080"/>
      <point x="644" y="1111"/>
      <point x="696" y="1167" type="curve" smooth="yes"/>
      <point x="709" y="1181" type="line" smooth="yes"/>
      <point x="791" y="1269"/>
      <point x="820" y="1330"/>
      <point x="820" y="1412" type="curve" smooth="yes"/>
      <point x="820" y="1583"/>
      <point x="673" y="1681"/>
      <point x="414" y="1681" type="curve" smooth="yes"/>
      <point x="306" y="1681"/>
      <point x="206" y="1671"/>
      <point x="103" y="1652" type="curve"/>
      <point x="103" y="1364" type="line"/>
      <point x="171" y="1379"/>
      <point x="240" y="1386"/>
      <point x="318" y="1386" type="curve" smooth="yes"/>
      <point x="405" y="1386"/>
      <point x="447" y="1358"/>
      <point x="447" y="1300" type="curve" smooth="yes"/>
      <point x="447" y="1263"/>
      <point x="430" y="1234"/>
      <point x="366" y="1160" type="curve" smooth="yes"/>
      <point x="350" y="1142" type="line" smooth="yes"/>
      <point x="279" y="1062"/>
      <point x="252" y="1005"/>
      <point x="252" y="936" type="curve" smooth="yes"/>
      <point x="252" y="819"/>
      <point x="346" y="746"/>
      <point x="511" y="736" type="curve" smooth="yes"/>
      <point x="867" y="714" type="line"/>
      <point x="867" y="616" type="line"/>
      <point x="511" y="593" type="line" smooth="yes"/>
      <point x="345" y="582"/>
      <point x="252" y="510"/>
      <point x="252" y="393" type="curve" smooth="yes"/>
      <point x="252" y="324"/>
      <point x="279" y="267"/>
      <point x="350" y="187" type="curve" smooth="yes"/>
      <point x="366" y="169" type="line" smooth="yes"/>
      <point x="430" y="95"/>
      <point x="447" y="66"/>
      <point x="447" y="29" type="curve" smooth="yes"/>
      <point x="447" y="-29"/>
      <point x="405" y="-57"/>
      <point x="318" y="-57" type="curve" smooth="yes"/>
      <point x="240" y="-57"/>
      <point x="171" y="-50"/>
      <point x="103" y="-35" type="curve"/>
      <point x="103" y="-323" type="line"/>
      <point x="206" y="-342"/>
      <point x="306" y="-351"/>
    </contour>
  </outline>
</glyph>
<glyph name="cent" format="2">
  <advance width="1200"/>
  <unicode hex="00A2"/>
  <outline>
    <contour>
      <point x="627" y="0" type="curve" smooth="yes"/>
      <point x="882" y="0"/>
      <point x="1079" y="144"/>
      <point x="1130" y="368" type="curve"/>
      <point x="818" y="456" type="line"/>
      <point x="795" y="351"/>
      <point x="735" y="290"/>
      <point x="630" y="290" type="curve" smooth="yes"/>
      <point x="505" y="290"/>
      <point x="426" y="387"/>
      <point x="426" y="542" type="curve" smooth="yes"/>
      <point x="426" y="582" type="line" smooth="yes"/>
      <point x="426" y="737"/>
      <point x="502" y="834"/>
      <point x="630" y="834" type="curve" smooth="yes"/>
      <point x="734" y="834"/>
      <point x="792" y="777"/>
      <point x="812" y="674" type="curve"/>
      <point x="1126" y="753" type="line"/>
      <point x="1078" y="986"/>
      <point x="896" y="1124"/>
      <point x="635" y="1124" type="curve" smooth="yes"/>
      <point x="306" y="1124"/>
      <point x="90" y="903"/>
      <point x="90" y="568" type="curve" smooth="yes"/>
      <point x="90" y="556" type="line" smooth="yes"/>
      <point x="90" y="220"/>
      <point x="302" y="0"/>
    </contour>
    <contour>
      <point x="484" y="-236" type="line"/>
      <point x="776" y="-236" type="line"/>
      <point x="776" y="96" type="line"/>
      <point x="740" y="133" type="line"/>
      <point x="740" y="211" type="line"/>
      <point x="510" y="211" type="line"/>
      <point x="510" y="133" type="line"/>
      <point x="484" y="96" type="line"/>
    </contour>
    <contour>
      <point x="510" y="913" type="line"/>
      <point x="740" y="913" type="line"/>
      <point x="740" y="991" type="line"/>
      <point x="776" y="1028" type="line"/>
      <point x="776" y="1360" type="line"/>
      <point x="484" y="1360" type="line"/>
      <point x="484" y="1028" type="line"/>
      <point x="510" y="991" type="line"/>
    </contour>
  </outline>
</glyph>
<glyph name="currency" format="2">
  <advance width="1200"/>
  <unicode hex="00A4"/>
  <outline>
    <contour>
      <point x="600" y="241" type="curve" smooth="yes"/>
      <point x="856" y="241"/>
      <point x="1073" y="449"/>
      <point x="1073" y="694" type="curve" smooth="yes"/>
      <point x="1073" y="712" type="line" smooth="yes"/>
      <point x="1073" y="957"/>
      <point x="856" y="1165"/>
      <point x="600" y="1165" type="curve" smooth="yes"/>
      <point x="344" y="1165"/>
      <point x="127" y="957"/>
      <point x="127" y="712" type="curve" smooth="yes"/>
      <point x="127" y="694" type="line" smooth="yes"/>
      <point x="127" y="449"/>
      <point x="344" y="241"/>
    </contour>
    <contour>
      <point x="202" y="107" type="line"/>
      <point x="459" y="365" type="line"/>
      <point x="261" y="563" type="line"/>
      <point x="4" y="305" type="line"/>
    </contour>
    <contour>
      <point x="600" y="491" type="curve" smooth="yes"/>
      <point x="481" y="491"/>
      <point x="397" y="574"/>
      <point x="397" y="691" type="curve" smooth="yes"/>
      <point x="397" y="715" type="line" smooth="yes"/>
      <point x="397" y="832"/>
      <point x="481" y="915"/>
      <point x="600" y="915" type="curve" smooth="yes"/>
      <point x="719" y="915"/>
      <point x="803" y="832"/>
      <point x="803" y="715" type="curve" smooth="yes"/>
      <point x="803" y="691" type="line" smooth="yes"/>
      <point x="803" y="574"/>
      <point x="719" y="491"/>
    </contour>
    <contour>
      <point x="262" y="844" type="line"/>
      <point x="460" y="1042" type="line"/>
      <point x="202" y="1299" type="line"/>
      <point x="4" y="1101" type="line"/>
    </contour>
    <contour>
      <point x="998" y="107" type="line"/>
      <point x="1196" y="305" type="line"/>
      <point x="938" y="562" type="line"/>
      <point x="740" y="364" type="line"/>
    </contour>
    <contour>
      <point x="939" y="843" type="line"/>
      <point x="1196" y="1101" type="line"/>
      <point x="998" y="1299" type="line"/>
      <point x="741" y="1041" type="line"/>
    </contour>
  </outline>
</glyph>
<glyph name="section" format="2">
  <advance width="1200"/>
  <unicode hex="00A7"/>
  <outline>
    <contour>
      <point x="807" y="232" type="line"/>
      <point x="1002" y="298"/>
      <point x="1112" y="428"/>
      <point x="1112" y="594" type="curve" smooth="yes"/>
      <point x="1112" y="782"/>
      <point x="1025" y="884"/>
      <point x="801" y="955" type="curve" smooth="yes"/>
      <point x="629" y="1010" type="line" smooth="yes"/>
      <point x="542" y="1038"/>
      <point x="513" y="1062"/>
      <point x="513" y="1108" type="curve" smooth="yes"/>
      <point x="513" y="1158"/>
      <point x="559" y="1187"/>
      <point x="639" y="1187" type="curve" smooth="yes"/>
      <point x="732" y="1187"/>
      <point x="794" y="1155"/>
      <point x="843" y="1081" type="curve"/>
      <point x="1070" y="1261" type="line"/>
      <point x="986" y="1397"/>
      <point x="849" y="1467"/>
      <point x="668" y="1467" type="curve" smooth="yes"/>
      <point x="402" y="1467"/>
      <point x="218" y="1319"/>
      <point x="218" y="1104" type="curve" smooth="yes"/>
      <point x="218" y="945"/>
      <point x="327" y="803"/>
      <point x="487" y="752" type="curve" smooth="yes"/>
      <point x="717" y="679" type="line" smooth="yes"/>
      <point x="795" y="654"/>
      <point x="822" y="625"/>
      <point x="822" y="563" type="curve" smooth="yes"/>
      <point x="822" y="490"/>
      <point x="781" y="436"/>
      <point x="680" y="378" type="curve"/>
    </contour>
    <contour>
      <point x="571" y="-217" type="curve" smooth="yes"/>
      <point x="816" y="-217"/>
      <point x="982" y="-73"/>
      <point x="982" y="140" type="curve" smooth="yes"/>
      <point x="982" y="308"/>
      <point x="879" y="445"/>
      <point x="713" y="498" type="curve" smooth="yes"/>
      <point x="483" y="571" type="line" smooth="yes"/>
      <point x="410" y="594"/>
      <point x="378" y="630"/>
      <point x="378" y="690" type="curve" smooth="yes"/>
      <point x="378" y="750"/>
      <point x="409" y="791"/>
      <point x="482" y="829" type="curve"/>
      <point x="393" y="1018" type="line"/>
      <point x="197" y="951"/>
      <point x="88" y="819"/>
      <point x="88" y="649" type="curve" smooth="yes"/>
      <point x="88" y="479"/>
      <point x="191" y="361"/>
      <point x="399" y="295" type="curve" smooth="yes"/>
      <point x="571" y="240" type="line" smooth="yes"/>
      <point x="659" y="212"/>
      <point x="687" y="188"/>
      <point x="687" y="140" type="curve" smooth="yes"/>
      <point x="687" y="90"/>
      <point x="646" y="63"/>
      <point x="571" y="63" type="curve" smooth="yes"/>
      <point x="480" y="63"/>
      <point x="417" y="96"/>
      <point x="360" y="173" type="curve"/>
      <point x="130" y="-4" type="line"/>
      <point x="226" y="-144"/>
      <point x="378" y="-217"/>
    </contour>
  </outline>
</glyph>
<glyph name="ordfeminine" format="2">
  <advance width="1200"/>
  <unicode hex="00AA"/>
  <outline>
    <contour>
      <point x="440" y="531" type="curve" smooth="yes"/>
      <point x="552" y="531"/>
      <point x="646" y="585"/>
      <point x="710" y="685" type="curve"/>
      <point x="724" y="685" type="line"/>
      <point x="724" y="551" type="line"/>
      <point x="1004" y="551" type="line"/>
      <point x="1004" y="1075" type="line" smooth="yes"/>
      <point x="1004" y="1342"/>
      <point x="870" y="1467"/>
      <point x="584" y="1467" type="curve" smooth="yes"/>
      <point x="434" y="1467"/>
      <point x="298" y="1443"/>
      <point x="174" y="1397" type="curve"/>
      <point x="250" y="1180" type="line"/>
      <point x="338" y="1221"/>
      <point x="420" y="1240"/>
      <point x="518" y="1240" type="curve" smooth="yes"/>
      <point x="661" y="1240"/>
      <point x="714" y="1192"/>
      <point x="714" y="1061" type="curve" smooth="yes"/>
      <point x="714" y="851" type="line" smooth="yes"/>
      <point x="714" y="769"/>
      <point x="655" y="717"/>
      <point x="561" y="717" type="curve" smooth="yes"/>
      <point x="483" y="717"/>
      <point x="450" y="746"/>
      <point x="450" y="813" type="curve" smooth="yes"/>
      <point x="450" y="827" type="line" smooth="yes"/>
      <point x="450" y="898"/>
      <point x="488" y="928"/>
      <point x="577" y="928" type="curve" smooth="yes"/>
      <point x="636" y="928"/>
      <point x="675" y="920"/>
      <point x="725" y="899" type="curve"/>
      <point x="725" y="1009" type="line"/>
      <point x="646" y="1063"/>
      <point x="557" y="1090"/>
      <point x="459" y="1090" type="curve" smooth="yes"/>
      <point x="265" y="1090"/>
      <point x="140" y="980"/>
      <point x="140" y="810" type="curve" smooth="yes"/>
      <point x="140" y="800" type="line" smooth="yes"/>
      <point x="140" y="642"/>
      <point x="264" y="531"/>
    </contour>
  </outline>
</glyph>
<glyph name="registered" format="2">
  <advance width="1200"/>
  <unicode hex="00AE"/>
  <outline>
    <contour>
      <point x="600" y="-30" type="curve" smooth="yes"/>
      <point x="961" y="-30"/>
      <point x="1192" y="237"/>
      <point x="1192" y="654" type="curve" smooth="yes"/>
      <point x="1192" y="783" type="line" smooth="yes"/>
      <point x="1192" y="1200"/>
      <point x="961" y="1467"/>
      <point x="600" y="1467" type="curve" smooth="yes"/>
      <point x="239" y="1467"/>
      <point x="8" y="1200"/>
      <point x="8" y="783" type="curve" smooth="yes"/>
      <point x="8" y="654" type="line" smooth="yes"/>
      <point x="8" y="237"/>
      <point x="239" y="-30"/>
    </contour>
    <contour>
      <point x="744" y="291" type="line"/>
      <point x="938" y="291" type="line"/>
      <point x="938" y="301" type="line"/>
      <point x="733" y="665" type="line"/>
      <point x="543" y="665" type="line"/>
    </contour>
    <contour>
      <point x="600" y="60" type="curve" smooth="yes"/>
      <point x="292" y="60"/>
      <point x="108" y="282"/>
      <point x="108" y="653" type="curve" smooth="yes"/>
      <point x="108" y="784" type="line" smooth="yes"/>
      <point x="108" y="1155"/>
      <point x="292" y="1377"/>
      <point x="600" y="1377" type="curve" smooth="yes"/>
      <point x="908" y="1377"/>
      <point x="1092" y="1155"/>
      <point x="1092" y="784" type="curve" smooth="yes"/>
      <point x="1092" y="653" type="line" smooth="yes"/>
      <point x="1092" y="282"/>
      <point x="908" y="60"/>
    </contour>
    <contour>
      <point x="322" y="291" type="line"/>
      <point x="494" y="291" type="line"/>
      <point x="494" y="985" type="line"/>
      <point x="601" y="985" type="line" smooth="yes"/>
      <point x="686" y="985"/>
      <point x="734" y="945"/>
      <point x="734" y="875" type="curve" smooth="yes"/>
      <point x="734" y="858" type="line" smooth="yes"/>
      <point x="734" y="790"/>
      <point x="686" y="748"/>
      <point x="601" y="748" type="curve" smooth="yes"/>
      <point x="428" y="748" type="line"/>
      <point x="428" y="596" type="line"/>
      <point x="605" y="596" type="line" smooth="yes"/>
      <point x="794" y="596"/>
      <point x="908" y="700"/>
      <point x="908" y="869" type="curve" smooth="yes"/>
      <point x="908" y="878" type="line" smooth="yes"/>
      <point x="908" y="1047"/>
      <point x="794" y="1149"/>
      <point x="605" y="1149" type="curve" smooth="yes"/>
      <point x="322" y="1149" type="line"/>
    </contour>
  </outline>
</glyph>
<glyph name="plusminus" format="2">
  <advance width="1200"/>
  <unicode hex="00B1"/>
  <outline>
    <contour>
      <point x="94" y="0" type="line"/>
      <point x="1106" y="0" type="line"/>
      <point x="1106" y="310" type="line"/>
      <point x="94" y="310" type="line"/>
    </contour>
    <contour>
      <point x="94" y="700" type="line"/>
      <point x="1106" y="700" type="line"/>
      <point x="1106" y="1008" type="line"/>
      <point x="94" y="1008" type="line"/>
    </contour>
    <contour>
      <point x="435" y="408" type="line"/>
      <point x="765" y="408" type="line"/>
      <point x="765" y="1300" type="line"/>
      <point x="435" y="1300" type="line"/>
    </contour>
  </outline>
</glyph>
<glyph name="twosuperior" format="2">
  <advance width="1200"/>
  <unicode hex="00B2"/>
  <outline>
    <contour>
      <point x="192" y="684" type="line"/>
      <point x="964" y="684" type="line"/>
      <point x="964" y="962" type="line"/>
      <point x="638" y="962" type="line"/>
      <point x="638" y="969" type="line"/>
      <point x="762" y="1098" type="line" smooth="yes"/>
      <point x="887" y="1229"/>
      <point x="926" y="1304"/>
      <point x="926" y="1414" type="curve" smooth="yes"/>
      <point x="926" y="1418" type="line" smooth="yes"/>
      <point x="926" y="1607"/>
      <point x="795" y="1727"/>
      <point x="584" y="1727" type="curve" smooth="yes"/>
      <point x="381" y="1727"/>
      <point x="233" y="1617"/>
      <point x="168" y="1419" type="curve"/>
      <point x="445" y="1318" type="line"/>
      <point x="474" y="1412"/>
      <point x="507" y="1447"/>
      <point x="559" y="1447" type="curve" smooth="yes"/>
      <point x="596" y="1447"/>
      <point x="618" y="1422"/>
      <point x="618" y="1386" type="curve" smooth="yes"/>
      <point x="618" y="1383" type="line" smooth="yes"/>
      <point x="618" y="1337"/>
      <point x="597" y="1303"/>
      <point x="534" y="1240" type="curve" smooth="yes"/>
      <point x="192" y="898" type="line"/>
    </contour>
  </outline>
</glyph>
<glyph name="threesuperior" format="2">
  <advance width="1200"/>
  <unicode hex="00B3"/>
  <outline>
    <contour>
      <point x="605" y="672" type="curve" smooth="yes"/>
      <point x="836" y="672"/>
      <point x="988" y="786"/>
      <point x="988" y="959" type="curve" smooth="yes"/>
      <point x="988" y="962" type="line" smooth="yes"/>
      <point x="988" y="1089"/>
      <point x="921" y="1174"/>
      <point x="796" y="1205" type="curve"/>
      <point x="796" y="1219" type="line"/>
      <point x="904" y="1257"/>
      <point x="962" y="1335"/>
      <point x="962" y="1443" type="curve" smooth="yes"/>
      <point x="962" y="1450" type="line" smooth="yes"/>
      <point x="962" y="1616"/>
      <point x="823" y="1727"/>
      <point x="613" y="1727" type="curve" smooth="yes"/>
      <point x="402" y="1727"/>
      <point x="250" y="1634"/>
      <point x="183" y="1464" type="curve"/>
      <point x="471" y="1368" type="line"/>
      <point x="489" y="1419"/>
      <point x="528" y="1447"/>
      <point x="581" y="1447" type="curve" smooth="yes"/>
      <point x="627" y="1447"/>
      <point x="654" y="1423"/>
      <point x="654" y="1381" type="curve" smooth="yes"/>
      <point x="654" y="1375" type="line" smooth="yes"/>
      <point x="654" y="1328"/>
      <point x="618" y="1303"/>
      <point x="551" y="1303" type="curve" smooth="yes"/>
      <point x="418" y="1303" type="line"/>
      <point x="418" y="1103" type="line"/>
      <point x="577" y="1103" type="line" smooth="yes"/>
      <point x="648" y="1103"/>
      <point x="680" y="1079"/>
      <point x="680" y="1028" type="curve" smooth="yes"/>
      <point x="680" y="1022" type="line" smooth="yes"/>
      <point x="680" y="978"/>
      <point x="645" y="952"/>
      <point x="586" y="952" type="curve" smooth="yes"/>
      <point x="514" y="952"/>
      <point x="465" y="985"/>
      <point x="441" y="1051" type="curve"/>
      <point x="158" y="939" type="line"/>
      <point x="218" y="763"/>
      <point x="371" y="672"/>
    </contour>
  </outline>
</glyph>
<glyph name="micro" format="2">
  <advance width="1200"/>
  <unicode hex="00B5"/>
  <outline>
    <contour>
      <point x="118" y="-406" type="line"/>
      <point x="471" y="-406" type="line"/>
      <point x="451" y="122" type="line"/>
      <point x="226" y="212" type="line"/>
      <point x="257" y="63"/>
      <point x="367" y="-35"/>
      <point x="505" y="-35" type="curve" smooth="yes"/>
      <point x="609" y="-35"/>
      <point x="683" y="35"/>
      <point x="732" y="181" type="curve"/>
      <point x="742" y="181" type="line"/>
      <point x="759" y="44"/>
      <point x="854" y="-35"/>
      <point x="996" y="-35" type="curve" smooth="yes"/>
      <point x="1069" y="-35"/>
      <point x="1132" y="-18"/>
      <point x="1200" y="15" type="curve"/>
      <point x="1148" y="256" type="line"/>
      <point x="1131" y="250"/>
      <point x="1114" y="247"/>
      <point x="1099" y="247" type="curve" smooth="yes"/>
      <point x="1050" y="247"/>
      <point x="1025" y="277"/>
      <point x="1025" y="335" type="curve" smooth="yes"/>
      <point x="1025" y="1054" type="line"/>
      <point x="682" y="1054" type="line"/>
      <point x="682" y="469" type="line" smooth="yes"/>
      <point x="682" y="322"/>
      <point x="631" y="247"/>
      <point x="551" y="247" type="curve" smooth="yes"/>
      <point x="495" y="247"/>
      <point x="461" y="286"/>
      <point x="461" y="351" type="curve" smooth="yes"/>
      <point x="461" y="1054" type="line"/>
      <point x="118" y="1054" type="line"/>
    </contour>
  </outline>
</glyph>
<glyph name="onesuperior" format="2">
  <advance width="1200"/>
  <unicode hex="00B9"/>
  <outline>
    <contour>
      <point x="468" y="827" type="line"/>
      <point x="776" y="827" type="line"/>
      <point x="776" y="1715" type="line"/>
      <point x="578" y="1715" type="line"/>
      <point x="156" y="1546" type="line"/>
      <point x="267" y="1285" type="line"/>
      <point x="468" y="1369" type="line"/>
    </contour>
    <contour>
      <point x="198" y="683" type="line"/>
      <point x="1016" y="683" type="line"/>
      <point x="1016" y="967" type="line"/>
      <point x="198" y="967" type="line"/>
    </contour>
  </outline>
</glyph>
<glyph name="AE" format="2">
  <advance width="1200"/>
  <unicode hex="00C6"/>
  <anchor x="717" y="1432" name="top"/>
  <outline>
    <contour>
      <point x="2" y="0" type="line"/>
      <point x="337" y="0" type="line"/>
      <point x="482" y="826" type="line"/>
      <point x="526" y="1140" type="line"/>
      <point x="707" y="1140" type="line"/>
      <point x="707" y="1432" type="line"/>
      <point x="332" y="1432" type="line"/>
    </contour>
    <contour>
      <point x="179" y="256" type="line"/>
      <point x="693" y="256" type="line"/>
      <point x="693" y="516" type="line"/>
      <point x="263" y="516" type="line"/>
    </contour>
    <contour>
      <point x="605" y="0" type="line"/>
      <point x="1198" y="0" type="line"/>
      <point x="1198" y="312" type="line"/>
      <point x="875" y="312" type="line"/>
      <point x="875" y="1120" type="line"/>
      <point x="1182" y="1120" type="line"/>
      <point x="1182" y="1432" type="line"/>
      <point x="605" y="1432" type="line"/>
    </contour>
    <contour>
      <point x="765" y="575" type="line"/>
      <point x="1142" y="575" type="line"/>
      <point x="1142" y="883" type="line"/>
      <point x="765" y="883" type="line"/>
    </contour>
  </outline>
</glyph>
<glyph name="Thorn" format="2">
  <advance width="1200"/>
  <unicode hex="00DE"/>
  <outline>
    <contour>
      <point x="321" y="266" type="line"/>
      <point x="594" y="266" type="line" smooth="yes"/>
      <point x="924" y="266"/>
      <point x="1126" y="449"/>
      <point x="1126" y="747" type="curve" smooth="yes"/>
      <point x="1126" y="755" type="line" smooth="yes"/>
      <point x="1126" y="1053"/>
      <point x="924" y="1236"/>
      <point x="594" y="1236" type="curve" smooth="yes"/>
      <point x="321" y="1236" type="line"/>
      <point x="321" y="930" type="line"/>
      <point x="592" y="930" type="line" smooth="yes"/>
      <point x="714" y="930"/>
      <point x="788" y="867"/>
      <point x="788" y="764" type="curve" smooth="yes"/>
      <point x="788" y="738" type="line" smooth="yes"/>
      <point x="788" y="635"/>
      <point x="714" y="572"/>
      <point x="592" y="572" type="curve" smooth="yes"/>
      <point x="321" y="572" type="line"/>
    </contour>
    <contour>
      <point x="110" y="0" type="line"/>
      <point x="454" y="0" type="line"/>
      <point x="454" y="1432" type="line"/>
      <point x="110" y="1432" type="line"/>
    </contour>
  </outline>
</glyph>
<glyph name="eth" format="2">
  <advance width="1200"/>
  <unicode hex="00F0"/>
  <outline>
    <contour>
      <point x="602" y="-35" type="curve" smooth="yes"/>
      <point x="912" y="-35"/>
      <point x="1138" y="161"/>
      <point x="1138" y="597" type="curve" smooth="yes"/>
      <point x="1138" y="609" type="line" smooth="yes"/>
      <point x="1138" y="1061"/>
      <point x="929" y="1391"/>
      <point x="483" y="1644" type="curve"/>
      <point x="357" y="1440" type="line"/>
      <point x="656" y="1294"/>
      <point x="777" y="1143"/>
      <point x="812" y="875" type="curve"/>
      <point x="771" y="865" type="line"/>
      <point x="822" y="830" type="line"/>
      <point x="777" y="946"/>
      <point x="688" y="1021"/>
      <point x="537" y="1021" type="curve" smooth="yes"/>
      <point x="264" y="1021"/>
      <point x="82" y="807"/>
      <point x="82" y="513" type="curve" smooth="yes"/>
      <point x="82" y="501" type="line" smooth="yes"/>
      <point x="82" y="191"/>
      <point x="299" y="-35"/>
    </contour>
    <contour>
      <point x="610" y="263" type="curve" smooth="yes"/>
      <point x="492" y="263"/>
      <point x="418" y="361"/>
      <point x="418" y="511" type="curve" smooth="yes"/>
      <point x="418" y="515" type="line" smooth="yes"/>
      <point x="418" y="665"/>
      <point x="492" y="763"/>
      <point x="610" y="763" type="curve" smooth="yes"/>
      <point x="728" y="763"/>
      <point x="802" y="665"/>
      <point x="802" y="515" type="curve" smooth="yes"/>
      <point x="802" y="511" type="line" smooth="yes"/>
      <point x="802" y="361"/>
      <point x="728" y="263"/>
    </contour>
    <contour>
      <point x="272" y="1099" type="line"/>
      <point x="760" y="1216" type="line"/>
      <point x="652" y="1378" type="line"/>
      <point x="227" y="1292" type="line"/>
    </contour>
    <contour>
      <point x="803" y="1242" type="line"/>
      <point x="1137" y="1306" type="line"/>
      <point x="1091" y="1499" type="line"/>
      <point x="695" y="1404" type="line"/>
    </contour>
  </outline>
</glyph>
<glyph name="divide" format="2">
  <advance width="1200"/>
  <unicode hex="00F7"/>
  <outline>
    <contour>
      <point x="114" y="485" type="line"/>
      <point x="1086" y="485" type="line"/>
      <point x="1086" y="805" type="line"/>
      <point x="114" y="805" type="line"/>
    </contour>
    <contour>
      <point x="600" y="879" type="curve" smooth="yes"/>
      <point x="712" y="879"/>
      <point x="796" y="963"/>
      <point x="796" y="1073" type="curve" smooth="yes"/>
      <point x="796" y="1183"/>
      <point x="712" y="1267"/>
      <point x="600" y="1267" type="curve" smooth="yes"/>
      <point x="488" y="1267"/>
      <point x="403" y="1182"/>
      <point x="403" y="1073" type="curve" smooth="yes"/>
      <point x="403" y="964"/>
      <point x="488" y="879"/>
    </contour>
    <contour>
      <point x="600" y="23" type="curve" smooth="yes"/>
      <point x="712" y="23"/>
      <point x="796" y="107"/>
      <point x="796" y="217" type="curve" smooth="yes"/>
      <point x="796" y="327"/>
      <point x="712" y="411"/>
      <point x="600" y="411" type="curve" smooth="yes"/>
      <point x="488" y="411"/>
      <point x="403" y="326"/>
      <point x="403" y="217" type="curve" smooth="yes"/>
      <point x="403" y="108"/>
      <point x="488" y="23"/>
    </contour>
  </outline>
</glyph>
<glyph name="oslash" format="2">
  <advance width="1200"/>
  <unicode hex="00F8"/>
  <guideline x="1134" y="554" angle="90"/>
  <outline>
    <contour>
      <point x="241" y="-187" type="line"/>
      <point x="1140" y="1126" type="line"/>
      <point x="959" y="1241" type="line"/>
      <point x="60" y="-72" type="line"/>
    </contour>
    <contour>
      <point x="610" y="-35" type="curve" smooth="yes"/>
      <point x="918" y="-35"/>
      <point x="1140" y="198"/>
      <point x="1140" y="517" type="curve" smooth="yes"/>
      <point x="1140" y="537" type="line" smooth="yes"/>
      <point x="1140" y="827"/>
      <point x="889" y="1089"/>
      <point x="590" y="1089" type="curve" smooth="yes"/>
      <point x="282" y="1089"/>
      <point x="60" y="857"/>
      <point x="60" y="537" type="curve" smooth="yes"/>
      <point x="60" y="517" type="line" smooth="yes"/>
      <point x="60" y="228"/>
      <point x="311" y="-35"/>
    </contour>
    <contour>
      <point x="600" y="209" type="curve" smooth="yes"/>
      <point x="426" y="209"/>
      <point x="352" y="284"/>
      <point x="352" y="501" type="curve" smooth="yes"/>
      <point x="352" y="513" type="line" smooth="yes"/>
      <point x="352" y="725"/>
      <point x="447" y="845"/>
      <point x="600" y="845" type="curve" smooth="yes"/>
      <point x="774" y="845"/>
      <point x="848" y="770"/>
      <point x="848" y="553" type="curve" smooth="yes"/>
      <point x="848" y="541" type="line" smooth="yes"/>
      <point x="848" y="329"/>
      <point x="753" y="209"/>
    </contour>
  </outline>
</glyph>
<glyph name="dcaron" format="2">
  <advance width="1200"/>
  <unicode hex="010F"/>
  <outline>
    <contour>
      <point x="356" y="-35" type="curve" smooth="yes"/>
      <point x="453" y="-35"/>
      <point x="529" y="34"/>
      <point x="575" y="151" type="curve"/>
      <point x="585" y="151" type="line"/>
      <point x="585" y="0" type="line"/>
      <point x="888" y="0" type="line"/>
      <point x="888" y="1460" type="line"/>
      <point x="576" y="1460" type="line"/>
      <point x="576" y="911" type="line"/>
      <point x="566" y="911" type="line"/>
      <point x="518" y="1029"/>
      <point x="446" y="1089"/>
      <point x="348" y="1089" type="curve" smooth="yes"/>
      <point x="165" y="1089"/>
      <point x="26" y="891"/>
      <point x="26" y="541" type="curve" smooth="yes"/>
      <point x="26" y="513" type="line" smooth="yes"/>
      <point x="26" y="165"/>
      <point x="173" y="-35"/>
    </contour>
    <contour>
      <point x="468" y="235" type="curve" smooth="yes"/>
      <point x="392" y="235"/>
      <point x="347" y="330"/>
      <point x="347" y="505" type="curve" smooth="yes"/>
      <point x="347" y="548" type="line" smooth="yes"/>
      <point x="347" y="723"/>
      <point x="392" y="819"/>
      <point x="468" y="819" type="curve" smooth="yes"/>
      <point x="540" y="819"/>
      <point x="586" y="719"/>
      <point x="586" y="548" type="curve" smooth="yes"/>
      <point x="586" y="505" type="line" smooth="yes"/>
      <point x="586" y="334"/>
      <point x="540" y="235"/>
    </contour>
    <contour>
      <point x="948" y="920" type="line"/>
      <point x="1178" y="920" type="line"/>
      <point x="1232" y="1460" type="line"/>
      <point x="968" y="1460" type="line"/>
    </contour>
  </outline>
</glyph>
<glyph name="Dcroat" format="2">
  <advance width="1200"/>
  <unicode hex="0110"/>
  <outline>
    <contour>
      <point x="170" y="0" type="line"/>
      <point x="586" y="0" type="line" smooth="yes"/>
      <point x="953" y="0"/>
      <point x="1174" y="261"/>
      <point x="1174" y="693" type="curve" smooth="yes"/>
      <point x="1174" y="739" type="line" smooth="yes"/>
      <point x="1174" y="1171"/>
      <point x="953" y="1432"/>
      <point x="586" y="1432" type="curve" smooth="yes"/>
      <point x="170" y="1432" type="line"/>
    </contour>
    <contour>
      <point x="34" y="580" type="line"/>
      <point x="729" y="580" type="line"/>
      <point x="729" y="888" type="line"/>
      <point x="34" y="888" type="line"/>
    </contour>
    <contour>
      <point x="470" y="314" type="line"/>
      <point x="470" y="1118" type="line"/>
      <point x="587" y="1118" type="line" smooth="yes"/>
      <point x="780" y="1118"/>
      <point x="854" y="996"/>
      <point x="854" y="744" type="curve" smooth="yes"/>
      <point x="854" y="688" type="line" smooth="yes"/>
      <point x="854" y="436"/>
      <point x="780" y="314"/>
      <point x="587" y="314" type="curve" smooth="yes"/>
    </contour>
  </outline>
</glyph>
<glyph name="IJ" format="2">
  <advance width="1200"/>
  <unicode hex="0132"/>
  <outline>
    <contour>
      <point x="613" y="-35" type="curve" smooth="yes"/>
      <point x="909" y="-35"/>
      <point x="1110" y="173"/>
      <point x="1110" y="479" type="curve" smooth="yes"/>
      <point x="1110" y="1432" type="line"/>
      <point x="760" y="1432" type="line"/>
      <point x="760" y="487" type="line" smooth="yes"/>
      <point x="760" y="374"/>
      <point x="702" y="305"/>
      <point x="605" y="305" type="curve" smooth="yes"/>
      <point x="515" y="305"/>
      <point x="456" y="354"/>
      <point x="429" y="454" type="curve"/>
      <point x="90" y="351" type="line"/>
      <point x="159" y="101"/>
      <point x="344" y="-35"/>
    </contour>
    <contour>
      <point x="90" y="615" type="line"/>
      <point x="440" y="615" type="line"/>
      <point x="440" y="1432" type="line"/>
      <point x="90" y="1432" type="line"/>
    </contour>
  </outline>
</glyph>
<glyph name="ij" format="2">
  <advance width="1200"/>
  <unicode hex="0133"/>
  <outline>
    <contour>
      <point x="689" y="-451" type="curve" smooth="yes"/>
      <point x="989" y="-451"/>
      <point x="1169" y="-272"/>
      <point x="1169" y="26" type="curve" smooth="yes"/>
      <point x="1169" y="1054" type="line"/>
      <point x="829" y="1054" type="line"/>
      <point x="829" y="14" type="line" smooth="yes"/>
      <point x="829" y="-92"/>
      <point x="773" y="-153"/>
      <point x="672" y="-153" type="curve" smooth="yes"/>
      <point x="603" y="-153"/>
      <point x="543" y="-128"/>
      <point x="472" y="-75" type="curve"/>
      <point x="310" y="-327" type="line"/>
      <point x="420" y="-408"/>
      <point x="549" y="-451"/>
    </contour>
    <contour>
      <point x="17" y="0" type="line"/>
      <point x="719" y="0" type="line"/>
      <point x="719" y="250" type="line"/>
      <point x="17" y="250" type="line"/>
    </contour>
    <contour>
      <point x="205" y="83" type="line"/>
      <point x="541" y="83" type="line"/>
      <point x="541" y="1054" type="line"/>
      <point x="205" y="1054" type="line"/>
    </contour>
    <contour>
      <point x="25" y="804" type="line"/>
      <point x="515" y="804" type="line"/>
      <point x="515" y="1054" type="line"/>
      <point x="25" y="1054" type="line"/>
    </contour>
    <contour>
      <point x="370" y="1235" type="curve" smooth="yes"/>
      <point x="492" y="1235"/>
      <point x="581" y="1327"/>
      <point x="581" y="1443" type="curve" smooth="yes"/>
      <point x="581" y="1564"/>
      <point x="492" y="1650"/>
      <point x="370" y="1650" type="curve" smooth="yes"/>
      <point x="252" y="1650"/>
      <point x="157" y="1564"/>
      <point x="157" y="1443" type="curve" smooth="yes"/>
      <point x="157" y="1327"/>
      <point x="252" y="1235"/>
    </contour>
    <contour>
      <point x="629" y="804" type="line"/>
      <point x="1081" y="804" type="line"/>
      <point x="1081" y="1054" type="line"/>
      <point x="629" y="1054" type="line"/>
    </contour>
    <contour>
      <point x="969" y="1235" type="curve" smooth="yes"/>
      <point x="1089" y="1235"/>
      <point x="1180" y="1325"/>
      <point x="1180" y="1443" type="curve" smooth="yes"/>
      <point x="1180" y="1564"/>
      <point x="1091" y="1650"/>
      <point x="969" y="1650" type="curve" smooth="yes"/>
      <point x="848" y="1650"/>
      <point x="756" y="1562"/>
      <point x="756" y="1443" type="curve" smooth="yes"/>
      <point x="756" y="1327"/>
      <point x="850" y="1235"/>
    </contour>
  </outline>
</glyph>
<glyph name="Lslash" format="2">
  <advance width="1200"/>
  <unicode hex="0141"/>
  <outline>
    <contour>
      <point x="258" y="0" type="line"/>
      <point x="1134" y="0" type="line"/>
      <point x="1134" y="328" type="line"/>
      <point x="576" y="328" type="line"/>
      <point x="576" y="1432" type="line"/>
      <point x="258" y="1432" type="line"/>
    </contour>
    <contour>
      <point x="0" y="325" type="line"/>
      <point x="283" y="497" type="line"/>
      <point x="326" y="505" type="line"/>
      <point x="964" y="884" type="line"/>
      <point x="964" y="1218" type="line"/>
      <point x="331" y="837" type="line"/>
      <point x="278" y="826" type="line"/>
      <point x="0" y="659" type="line"/>
    </contour>
  </outline>
</glyph>
<glyph name="lslash" format="2">
  <advance width="1200"/>
  <unicode hex="0142"/>
  <anchor x="753" y="-35" name="bottom"/>
  <anchor x="515" y="1460" name="top"/>
  <outline>
    <contour>
      <point x="85" y="401" type="line"/>
      <point x="500" y="623" type="line"/>
      <point x="560" y="616" type="line"/>
      <point x="1023" y="858" type="line"/>
      <point x="1023" y="1160" type="line"/>
      <point x="562" y="916" type="line"/>
      <point x="502" y="923" type="line"/>
      <point x="85" y="703" type="line"/>
    </contour>
    <component base="l"/>
  </outline>
</glyph>
<glyph name="napostrophe" format="2">
  <advance width="1200"/>
  <unicode hex="0149"/>
  <outline>
    <contour>
      <point x="326" y="0" type="line"/>
      <point x="642" y="0" type="line"/>
      <point x="642" y="661" type="line" smooth="yes"/>
      <point x="642" y="750"/>
      <point x="689" y="809"/>
      <point x="761" y="809" type="curve" smooth="yes"/>
      <point x="822" y="809"/>
      <point x="854" y="769"/>
      <point x="854" y="695" type="curve" smooth="yes"/>
      <point x="854" y="0" type="line"/>
      <point x="1170" y="0" type="line"/>
      <point x="1170" y="772" type="line" smooth="yes"/>
      <point x="1170" y="962"/>
      <point x="1085" y="1089"/>
      <point x="923" y="1089" type="curve" smooth="yes"/>
      <point x="804" y="1089"/>
      <point x="705" y="1026"/>
      <point x="636" y="905" type="curve"/>
      <point x="628" y="905" type="line"/>
      <point x="628" y="1054" type="line"/>
      <point x="326" y="1054" type="line"/>
    </contour>
    <contour>
      <point x="-12" y="882" type="line"/>
      <point x="248" y="882" type="line"/>
      <point x="502" y="1460" type="line"/>
      <point x="158" y="1460" type="line"/>
    </contour>
  </outline>
</glyph>
<glyph name="eng" format="2">
  <advance width="1200"/>
  <unicode hex="014B"/>
  <outline>
    <contour>
      <point x="705" y="-451" type="curve" smooth="yes"/>
      <point x="952" y="-451"/>
      <point x="1100" y="-298"/>
      <point x="1100" y="-41" type="curve" smooth="yes"/>
      <point x="1100" y="732" type="line" smooth="yes"/>
      <point x="1100" y="951"/>
      <point x="982" y="1089"/>
      <point x="794" y="1089" type="curve" smooth="yes"/>
      <point x="655" y="1089"/>
      <point x="539" y="1022"/>
      <point x="458" y="895" type="curve"/>
      <point x="449" y="895" type="line"/>
      <point x="449" y="1054" type="line"/>
      <point x="122" y="1054" type="line"/>
      <point x="122" y="0" type="line"/>
      <point x="465" y="0" type="line"/>
      <point x="465" y="619" type="line" smooth="yes"/>
      <point x="465" y="732"/>
      <point x="530" y="807"/>
      <point x="628" y="807" type="curve" smooth="yes"/>
      <point x="712" y="807"/>
      <point x="757" y="753"/>
      <point x="757" y="653" type="curve" smooth="yes"/>
      <point x="757" y="-47" type="line" smooth="yes"/>
      <point x="757" y="-115"/>
      <point x="725" y="-153"/>
      <point x="666" y="-153" type="curve" smooth="yes"/>
      <point x="626" y="-153"/>
      <point x="595" y="-141"/>
      <point x="546" y="-106" type="curve"/>
      <point x="390" y="-360" type="line"/>
      <point x="475" y="-421"/>
      <point x="579" y="-451"/>
    </contour>
  </outline>
</glyph>
<glyph name="OE" format="2">
  <advance width="1200"/>
  <unicode hex="0152"/>
  <outline>
    <contour>
      <point x="392" y="-35" type="curve" smooth="yes"/>
      <point x="528" y="-35"/>
      <point x="617" y="70"/>
      <point x="655" y="252" type="curve"/>
      <point x="675" y="252" type="line"/>
      <point x="685" y="0" type="line"/>
      <point x="1184" y="0" type="line"/>
      <point x="1184" y="312" type="line"/>
      <point x="869" y="312" type="line"/>
      <point x="869" y="1120" type="line"/>
      <point x="1168" y="1120" type="line"/>
      <point x="1168" y="1432" type="line"/>
      <point x="685" y="1432" type="line"/>
      <point x="675" y="1180" type="line"/>
      <point x="655" y="1180" type="line"/>
      <point x="617" y="1362"/>
      <point x="528" y="1467"/>
      <point x="392" y="1467" type="curve" smooth="yes"/>
      <point x="162" y="1467"/>
      <point x="28" y="1225"/>
      <point x="28" y="769" type="curve" smooth="yes"/>
      <point x="28" y="663" type="line" smooth="yes"/>
      <point x="28" y="207"/>
      <point x="162" y="-35"/>
    </contour>
    <contour>
      <point x="464" y="289" type="curve" smooth="yes"/>
      <point x="378" y="289"/>
      <point x="348" y="411"/>
      <point x="348" y="658" type="curve" smooth="yes"/>
      <point x="348" y="774" type="line" smooth="yes"/>
      <point x="348" y="1021"/>
      <point x="378" y="1143"/>
      <point x="464" y="1143" type="curve" smooth="yes"/>
      <point x="550" y="1143"/>
      <point x="579" y="1021"/>
      <point x="579" y="774" type="curve" smooth="yes"/>
      <point x="579" y="658" type="line" smooth="yes"/>
      <point x="579" y="411"/>
      <point x="550" y="289"/>
    </contour>
    <contour>
      <point x="751" y="575" type="line"/>
      <point x="1128" y="575" type="line"/>
      <point x="1128" y="883" type="line"/>
      <point x="751" y="883" type="line"/>
    </contour>
  </outline>
</glyph>
<glyph name="oe" format="2">
  <advance width="1200"/>
  <unicode hex="0153"/>
  <outline>
    <contour>
      <point x="362" y="-35" type="curve" smooth="yes"/>
      <point x="523" y="-35"/>
      <point x="622" y="98"/>
      <point x="641" y="339" type="curve"/>
      <point x="561" y="339" type="line"/>
      <point x="575" y="104"/>
      <point x="677" y="-35"/>
      <point x="868" y="-35" type="curve" smooth="yes"/>
      <point x="1020" y="-35"/>
      <point x="1127" y="74"/>
      <point x="1183" y="288" type="curve"/>
      <point x="934" y="351" type="line"/>
      <point x="907" y="244"/>
      <point x="880" y="205"/>
      <point x="834" y="205" type="curve" smooth="yes"/>
      <point x="760" y="205"/>
      <point x="721" y="307"/>
      <point x="721" y="501" type="curve" smooth="yes"/>
      <point x="721" y="530" type="line" smooth="yes"/>
      <point x="721" y="752"/>
      <point x="754" y="849"/>
      <point x="826" y="849" type="curve" smooth="yes"/>
      <point x="887" y="849"/>
      <point x="916" y="779"/>
      <point x="916" y="626" type="curve"/>
      <point x="926" y="636" type="line"/>
      <point x="607" y="636" type="line"/>
      <point x="607" y="449" type="line"/>
      <point x="1185" y="449" type="line"/>
      <point x="1189" y="498"/>
      <point x="1190" y="533"/>
      <point x="1190" y="582" type="curve" smooth="yes"/>
      <point x="1190" y="906"/>
      <point x="1076" y="1089"/>
      <point x="875" y="1089" type="curve" smooth="yes"/>
      <point x="721" y="1089"/>
      <point x="603" y="974"/>
      <point x="569" y="792" type="curve"/>
      <point x="641" y="792" type="line"/>
      <point x="608" y="983"/>
      <point x="509" y="1089"/>
      <point x="362" y="1089" type="curve" smooth="yes"/>
      <point x="148" y="1089"/>
      <point x="24" y="894"/>
      <point x="24" y="557" type="curve" smooth="yes"/>
      <point x="24" y="497" type="line" smooth="yes"/>
      <point x="24" y="160"/>
      <point x="148" y="-35"/>
    </contour>
    <contour>
      <point x="398" y="231" type="curve" smooth="yes"/>
      <point x="332" y="231"/>
      <point x="298" y="322"/>
      <point x="298" y="501" type="curve" smooth="yes"/>
      <point x="298" y="553" type="line" smooth="yes"/>
      <point x="298" y="732"/>
      <point x="332" y="823"/>
      <point x="398" y="823" type="curve" smooth="yes"/>
      <point x="466" y="823"/>
      <point x="498" y="737"/>
      <point x="498" y="553" type="curve" smooth="yes"/>
      <point x="498" y="501" type="line" smooth="yes"/>
      <point x="498" y="317"/>
      <point x="466" y="231"/>
    </contour>
  </outline>
</glyph>
<glyph name="Uogonek" format="2">
  <advance width="1200"/>
  <unicode hex="0172"/>
  <outline>
    <contour>
      <point x="700" y="-552" type="curve" smooth="yes"/>
      <point x="778" y="-552"/>
      <point x="844" y="-534"/>
      <point x="910" y="-496" type="curve"/>
      <point x="846" y="-291" type="line"/>
      <point x="819" y="-303"/>
      <point x="796" y="-308"/>
      <point x="768" y="-308" type="curve" smooth="yes"/>
      <point x="705" y="-308"/>
      <point x="661" y="-268"/>
      <point x="661" y="-209" type="curve" smooth="yes"/>
      <point x="661" y="-137"/>
      <point x="708" y="-82"/>
      <point x="838" y="0" type="curve" smooth="yes"/>
      <point x="1026" y="119"/>
      <point x="1110" y="265"/>
      <point x="1110" y="472" type="curve" smooth="yes"/>
      <point x="1110" y="1432" type="line"/>
      <point x="762" y="1432" type="line"/>
      <point x="762" y="486" type="line" smooth="yes"/>
      <point x="762" y="370"/>
      <point x="700" y="299"/>
      <point x="600" y="299" type="curve" smooth="yes"/>
      <point x="500" y="299"/>
      <point x="438" y="370"/>
      <point x="438" y="486" type="curve" smooth="yes"/>
      <point x="438" y="1432" type="line"/>
      <point x="90" y="1432" type="line"/>
      <point x="90" y="472" type="line" smooth="yes"/>
      <point x="90" y="171"/>
      <point x="293" y="-29"/>
      <point x="600" y="-29" type="curve" smooth="yes"/>
      <point x="662" y="-29"/>
      <point x="720" y="-21"/>
      <point x="773" y="-5" type="curve"/>
      <point x="788" y="120" type="line"/>
      <point x="527" y="27"/>
      <point x="403" y="-98"/>
      <point x="403" y="-267" type="curve" smooth="yes"/>
      <point x="403" y="-430"/>
      <point x="531" y="-552"/>
    </contour>
  </outline>
</glyph>
<glyph name="uogonek" format="2">
  <advance width="1200"/>
  <unicode hex="0173"/>
  <anchor x="616" y="-35" name="bottom"/>
  <anchor x="1067" y="0" name="ogonek"/>
  <anchor x="597" y="1054" name="top"/>
  <outline>
    <contour>
      <point x="911" y="-552" type="curve" smooth="yes"/>
      <point x="990" y="-552"/>
      <point x="1056" y="-534"/>
      <point x="1121" y="-496" type="curve"/>
      <point x="1057" y="-291" type="line"/>
      <point x="1030" y="-303"/>
      <point x="1007" y="-308"/>
      <point x="979" y="-308" type="curve" smooth="yes"/>
      <point x="917" y="-308"/>
      <point x="872" y="-270"/>
      <point x="872" y="-211" type="curve" smooth="yes"/>
      <point x="872" y="-131"/>
      <point x="929" y="-72"/>
      <point x="1067" y="0" type="curve"/>
      <point x="999" y="120" type="line"/>
      <point x="733" y="25"/>
      <point x="614" y="-101"/>
      <point x="614" y="-267" type="curve" smooth="yes"/>
      <point x="614" y="-430"/>
      <point x="742" y="-552"/>
    </contour>
    <component base="u"/>
  </outline>
</glyph>
<glyph name="Bhook" format="2">
  <advance width="1200"/>
  <unicode hex="0181"/>
  <outline>
    <contour>
      <point x="411" y="0" type="line"/>
      <point x="777" y="0" type="line" smooth="yes"/>
      <point x="1026" y="0"/>
      <point x="1194" y="150"/>
      <point x="1194" y="371" type="curve" smooth="yes"/>
      <point x="1194" y="392" type="line" smooth="yes"/>
      <point x="1194" y="566"/>
      <point x="1106" y="682"/>
      <point x="940" y="730" type="curve"/>
      <point x="940" y="740" type="line"/>
      <point x="1079" y="797"/>
      <point x="1158" y="908"/>
      <point x="1158" y="1049" type="curve" smooth="yes"/>
      <point x="1158" y="1067" type="line" smooth="yes"/>
      <point x="1158" y="1291"/>
      <point x="1000" y="1432"/>
      <point x="750" y="1432" type="curve" smooth="yes"/>
      <point x="411" y="1432" type="line"/>
    </contour>
    <contour>
      <point x="7" y="784" type="curve"/>
      <point x="273" y="866" type="line"/>
      <point x="255" y="916"/>
      <point x="246" y="968"/>
      <point x="246" y="1017" type="curve" smooth="yes"/>
      <point x="246" y="1130"/>
      <point x="295" y="1190"/>
      <point x="389" y="1190" type="curve" smooth="yes"/>
      <point x="590" y="1190" type="line"/>
      <point x="590" y="1432" type="line"/>
      <point x="383" y="1432" type="line" smooth="yes"/>
      <point x="126" y="1432"/>
      <point x="-48" y="1268"/>
      <point x="-48" y="1027" type="curve" smooth="yes"/>
      <point x="-48" y="956"/>
      <point x="-30" y="871"/>
    </contour>
    <contour>
      <point x="693" y="248" type="line"/>
      <point x="693" y="1184" type="line"/>
      <point x="733" y="1184" type="line" smooth="yes"/>
      <point x="822" y="1184"/>
      <point x="860" y="1136"/>
      <point x="860" y="1022" type="curve" smooth="yes"/>
      <point x="860" y="1009" type="line" smooth="yes"/>
      <point x="860" y="899"/>
      <point x="819" y="847"/>
      <point x="733" y="847" type="curve" smooth="yes"/>
      <point x="603" y="847" type="line"/>
      <point x="603" y="603" type="line"/>
      <point x="730" y="603" type="line" smooth="yes"/>
      <point x="834" y="603"/>
      <point x="882" y="550"/>
      <point x="882" y="434" type="curve" smooth="yes"/>
      <point x="882" y="417" type="line" smooth="yes"/>
      <point x="882" y="299"/>
      <point x="838" y="248"/>
      <point x="736" y="248" type="curve" smooth="yes"/>
    </contour>
  </outline>
</glyph>
<glyph name="Uhorn" format="2">
  <advance width="1200"/>
  <unicode hex="01AF"/>
  <anchor x="532" y="-35" name="bottom"/>
  <outline>
    <contour>
      <point x="530" y="-35" type="curve" smooth="yes"/>
      <point x="819" y="-35"/>
      <point x="1010" y="154"/>
      <point x="1010" y="439" type="curve" smooth="yes"/>
      <point x="1010" y="1414" type="line"/>
      <point x="787" y="1292" type="line"/>
      <point x="857" y="1292" type="line" smooth="yes"/>
      <point x="1075" y="1292"/>
      <point x="1230" y="1404"/>
      <point x="1230" y="1589" type="curve" smooth="yes"/>
      <point x="1230" y="1687"/>
      <point x="1197" y="1772"/>
      <point x="1119" y="1873" type="curve"/>
      <point x="866" y="1711" type="line"/>
      <point x="913" y="1647"/>
      <point x="930" y="1604"/>
      <point x="930" y="1553" type="curve" smooth="yes"/>
      <point x="930" y="1477"/>
      <point x="873" y="1432"/>
      <point x="780" y="1432" type="curve" smooth="yes"/>
      <point x="684" y="1432" type="line"/>
      <point x="684" y="453" type="line" smooth="yes"/>
      <point x="684" y="351"/>
      <point x="626" y="289"/>
      <point x="532" y="289" type="curve" smooth="yes"/>
      <point x="438" y="289"/>
      <point x="380" y="351"/>
      <point x="380" y="453" type="curve" smooth="yes"/>
      <point x="380" y="1432" type="line"/>
      <point x="50" y="1432" type="line"/>
      <point x="50" y="439" type="line" smooth="yes"/>
      <point x="50" y="154"/>
      <point x="241" y="-35"/>
    </contour>
  </outline>
</glyph>
<glyph name="uhorn" format="2">
  <advance width="1200"/>
  <unicode hex="01B0"/>
  <anchor x="565" y="-35" name="bottom"/>
  <outline>
    <contour>
      <point x="397" y="-35" type="curve" smooth="yes"/>
      <point x="512" y="-35"/>
      <point x="612" y="29"/>
      <point x="676" y="143" type="curve"/>
      <point x="687" y="143" type="line"/>
      <point x="687" y="0" type="line"/>
      <point x="1014" y="0" type="line"/>
      <point x="1014" y="1054" type="line"/>
      <point x="768" y="922" type="line"/>
      <point x="838" y="922" type="line" smooth="yes"/>
      <point x="1063" y="922"/>
      <point x="1204" y="1031"/>
      <point x="1204" y="1205" type="curve" smooth="yes"/>
      <point x="1204" y="1294"/>
      <point x="1172" y="1372"/>
      <point x="1109" y="1452" type="curve"/>
      <point x="851" y="1288" type="line"/>
      <point x="890" y="1237"/>
      <point x="904" y="1202"/>
      <point x="904" y="1159" type="curve" smooth="yes"/>
      <point x="904" y="1092"/>
      <point x="853" y="1054"/>
      <point x="763" y="1054" type="curve" smooth="yes"/>
      <point x="687" y="1054" type="line"/>
      <point x="687" y="402" type="line" smooth="yes"/>
      <point x="687" y="298"/>
      <point x="639" y="237"/>
      <point x="557" y="237" type="curve" smooth="yes"/>
      <point x="485" y="237"/>
      <point x="441" y="284"/>
      <point x="441" y="363" type="curve" smooth="yes"/>
      <point x="441" y="1054" type="line"/>
      <point x="115" y="1054" type="line"/>
      <point x="115" y="288" type="line" smooth="yes"/>
      <point x="115" y="87"/>
      <point x="222" y="-35"/>
    </contour>
  </outline>
</glyph>
<glyph name="Yhook" format="2">
  <advance width="1200"/>
  <unicode hex="01B3"/>
  <outline>
    <contour>
      <point x="413" y="389" type="line"/>
      <point x="687" y="389" type="line"/>
      <point x="901" y="949" type="line" smooth="yes"/>
      <point x="956" y="1094"/>
      <point x="999" y="1141"/>
      <point x="1077" y="1141" type="curve" smooth="yes"/>
      <point x="1102" y="1141"/>
      <point x="1122" y="1137"/>
      <point x="1145" y="1127" type="curve"/>
      <point x="1242" y="1416" type="line"/>
      <point x="1171" y="1453"/>
      <point x="1111" y="1467"/>
      <point x="1022" y="1467" type="curve" smooth="yes"/>
      <point x="817" y="1467"/>
      <point x="686" y="1348"/>
      <point x="629" y="1110" type="curve" smooth="yes"/>
      <point x="613" y="1043" type="line"/>
      <point x="560" y="825" type="line"/>
      <point x="551" y="825" type="line"/>
      <point x="474" y="1113" type="line"/>
      <point x="376" y="1432" type="line"/>
      <point x="2" y="1432" type="line"/>
    </contour>
    <contour>
      <point x="376" y="0" type="line"/>
      <point x="724" y="0" type="line"/>
      <point x="724" y="652" type="line"/>
      <point x="376" y="652" type="line"/>
    </contour>
  </outline>
</glyph>
<glyph name="yhook" format="2">
  <advance width="1200"/>
  <unicode hex="01B4"/>
  <outline>
    <contour>
      <point x="279" y="-451" type="curve" smooth="yes"/>
      <point x="502" y="-451"/>
      <point x="652" y="-316"/>
      <point x="721" y="-60" type="curve" smooth="yes"/>
      <point x="969" y="863" type="line" smooth="yes"/>
      <point x="1008" y="1009"/>
      <point x="1065" y="1064"/>
      <point x="1161" y="1064" type="curve" smooth="yes"/>
      <point x="1192" y="1064"/>
      <point x="1213" y="1060"/>
      <point x="1240" y="1050" type="curve"/>
      <point x="1298" y="1338" type="line"/>
      <point x="1243" y="1356"/>
      <point x="1192" y="1364"/>
      <point x="1132" y="1364" type="curve" smooth="yes"/>
      <point x="882" y="1364"/>
      <point x="732" y="1223"/>
      <point x="672" y="930" type="curve" smooth="yes"/>
      <point x="616" y="658" type="line"/>
      <point x="558" y="217" type="line"/>
      <point x="473" y="217" type="line"/>
      <point x="401" y="-46" type="line" smooth="yes"/>
      <point x="383" y="-113"/>
      <point x="334" y="-153"/>
      <point x="254" y="-153" type="curve" smooth="yes"/>
      <point x="204" y="-153"/>
      <point x="162" y="-141"/>
      <point x="106" y="-111" type="curve"/>
      <point x="-22" y="-376" type="line"/>
      <point x="64" y="-426"/>
      <point x="165" y="-451"/>
    </contour>
    <contour>
      <point x="430" y="-84" type="line"/>
      <point x="689" y="332" type="line"/>
      <point x="560" y="332" type="line"/>
      <point x="496" y="658" type="line"/>
      <point x="400" y="1054" type="line"/>
      <point x="58" y="1054" type="line"/>
    </contour>
  </outline>
</glyph>
<glyph name="DZcaron" format="2">
  <advance width="1200"/>
  <unicode hex="01C4"/>
  <outline>
    <contour>
      <point x="6" y="0" type="line"/>
      <point x="286" y="0" type="line" smooth="yes"/>
      <point x="520" y="0"/>
      <point x="630" y="202"/>
      <point x="630" y="633" type="curve" smooth="yes"/>
      <point x="630" y="799" type="line" smooth="yes"/>
      <point x="630" y="1230"/>
      <point x="520" y="1432"/>
      <point x="286" y="1432" type="curve" smooth="yes"/>
      <point x="6" y="1432" type="line"/>
    </contour>
    <contour>
      <point x="254" y="270" type="line"/>
      <point x="254" y="1162" type="line"/>
      <point x="286" y="1162" type="line" smooth="yes"/>
      <point x="354" y="1162"/>
      <point x="376" y="1074"/>
      <point x="376" y="804" type="curve" smooth="yes"/>
      <point x="376" y="628" type="line" smooth="yes"/>
      <point x="376" y="358"/>
      <point x="354" y="270"/>
      <point x="286" y="270" type="curve" smooth="yes"/>
    </contour>
    <contour>
      <point x="624" y="0" type="line"/>
      <point x="1196" y="0" type="line"/>
      <point x="1196" y="270" type="line"/>
      <point x="908" y="270" type="line"/>
      <point x="1188" y="1222" type="line"/>
      <point x="1188" y="1432" type="line"/>
      <point x="644" y="1432" type="line"/>
      <point x="644" y="1162" type="line"/>
      <point x="904" y="1162" type="line"/>
      <point x="624" y="210" type="line"/>
    </contour>
    <contour>
      <point x="771" y="1638" type="line"/>
      <point x="1059" y="1638" type="line"/>
      <point x="1305" y="2008" type="line"/>
      <point x="1305" y="2022" type="line"/>
      <point x="1045" y="2022" type="line"/>
      <point x="885" y="1723" type="line"/>
      <point x="945" y="1723" type="line"/>
      <point x="785" y="2022" type="line"/>
      <point x="525" y="2022" type="line"/>
      <point x="525" y="2008" type="line"/>
    </contour>
  </outline>
</glyph>
<glyph name="Dzcaron" format="2">
  <advance width="1200"/>
  <unicode hex="01C5"/>
  <outline>
    <contour>
      <point x="16" y="0" type="line"/>
      <point x="286" y="0" type="line" smooth="yes"/>
      <point x="537" y="0"/>
      <point x="660" y="202"/>
      <point x="660" y="633" type="curve" smooth="yes"/>
      <point x="660" y="799" type="line" smooth="yes"/>
      <point x="660" y="1230"/>
      <point x="537" y="1432"/>
      <point x="286" y="1432" type="curve" smooth="yes"/>
      <point x="16" y="1432" type="line"/>
    </contour>
    <contour>
      <point x="264" y="270" type="line"/>
      <point x="264" y="1162" type="line"/>
      <point x="306" y="1162" type="line" smooth="yes"/>
      <point x="382" y="1162"/>
      <point x="406" y="1074"/>
      <point x="406" y="804" type="curve" smooth="yes"/>
      <point x="406" y="628" type="line" smooth="yes"/>
      <point x="406" y="358"/>
      <point x="382" y="270"/>
      <point x="306" y="270" type="curve" smooth="yes"/>
    </contour>
    <contour>
      <point x="684" y="0" type="line"/>
      <point x="1200" y="0" type="line"/>
      <point x="1200" y="248" type="line"/>
      <point x="952" y="248" type="line"/>
      <point x="1192" y="846" type="line"/>
      <point x="1192" y="1054" type="line"/>
      <point x="704" y="1054" type="line"/>
      <point x="704" y="806" type="line"/>
      <point x="924" y="806" type="line"/>
      <point x="684" y="208" type="line"/>
    </contour>
    <contour>
      <point x="808" y="1260" type="line"/>
      <point x="1088" y="1260" type="line"/>
      <point x="1304" y="1630" type="line"/>
      <point x="1304" y="1644" type="line"/>
      <point x="1052" y="1644" type="line"/>
      <point x="922" y="1364" type="line"/>
      <point x="974" y="1364" type="line"/>
      <point x="844" y="1644" type="line"/>
      <point x="592" y="1644" type="line"/>
      <point x="592" y="1630" type="line"/>
    </contour>
  </outline>
</glyph>
<glyph name="dzcaron" format="2">
  <advance width="1200"/>
  <unicode hex="01C6"/>
  <outline>
    <contour>
      <point x="227" y="-35" type="curve" smooth="yes"/>
      <point x="304" y="-35"/>
      <point x="358" y="29"/>
      <point x="396" y="138" type="curve"/>
      <point x="406" y="138" type="line"/>
      <point x="406" y="0" type="line"/>
      <point x="650" y="0" type="line"/>
      <point x="650" y="1460" type="line"/>
      <point x="390" y="1460" type="line"/>
      <point x="390" y="915" type="line"/>
      <point x="380" y="915" type="line"/>
      <point x="340" y="1030"/>
      <point x="287" y="1089"/>
      <point x="212" y="1089" type="curve" smooth="yes"/>
      <point x="72" y="1089"/>
      <point x="-4" y="891"/>
      <point x="-4" y="579" type="curve" smooth="yes"/>
      <point x="-4" y="475" type="line" smooth="yes"/>
      <point x="-4" y="163"/>
      <point x="81" y="-35"/>
    </contour>
    <contour>
      <point x="337" y="225" type="curve" smooth="yes"/>
      <point x="287" y="225"/>
      <point x="266" y="293"/>
      <point x="266" y="433" type="curve" smooth="yes"/>
      <point x="266" y="621" type="line" smooth="yes"/>
      <point x="266" y="761"/>
      <point x="287" y="829"/>
      <point x="337" y="829" type="curve" smooth="yes"/>
      <point x="387" y="829"/>
      <point x="408" y="755"/>
      <point x="408" y="615" type="curve" smooth="yes"/>
      <point x="408" y="439" type="line" smooth="yes"/>
      <point x="408" y="299"/>
      <point x="387" y="225"/>
    </contour>
    <contour>
      <point x="700" y="0" type="line"/>
      <point x="1216" y="0" type="line"/>
      <point x="1216" y="248" type="line"/>
      <point x="968" y="248" type="line"/>
      <point x="1206" y="846" type="line"/>
      <point x="1206" y="1054" type="line"/>
      <point x="710" y="1054" type="line"/>
      <point x="710" y="806" type="line"/>
      <point x="938" y="806" type="line"/>
      <point x="700" y="208" type="line"/>
    </contour>
    <contour>
      <point x="838" y="1260" type="line"/>
      <point x="1118" y="1260" type="line"/>
      <point x="1334" y="1630" type="line"/>
      <point x="1334" y="1644" type="line"/>
      <point x="1082" y="1644" type="line"/>
      <point x="952" y="1364" type="line"/>
      <point x="1004" y="1364" type="line"/>
      <point x="874" y="1644" type="line"/>
      <point x="622" y="1644" type="line"/>
      <point x="622" y="1630" type="line"/>
    </contour>
  </outline>
</glyph>
<glyph name="Lj" format="2">
  <advance width="1200"/>
  <unicode hex="01C8"/>
  <outline>
    <contour>
      <point x="747" y="-451" type="curve" smooth="yes"/>
      <point x="1005" y="-451"/>
      <point x="1169" y="-281"/>
      <point x="1169" y="-12" type="curve" smooth="yes"/>
      <point x="1169" y="1054" type="line"/>
      <point x="853" y="1054" type="line"/>
      <point x="853" y="-4" type="line" smooth="yes"/>
      <point x="853" y="-107"/>
      <point x="806" y="-163"/>
      <point x="718" y="-163" type="curve" smooth="yes"/>
      <point x="660" y="-163"/>
      <point x="612" y="-145"/>
      <point x="552" y="-100" type="curve"/>
      <point x="399" y="-332" type="line"/>
      <point x="497" y="-412"/>
      <point x="611" y="-451"/>
    </contour>
    <contour>
      <point x="48" y="0" type="line"/>
      <point x="697" y="0" type="line"/>
      <point x="697" y="310" type="line"/>
      <point x="368" y="310" type="line"/>
      <point x="368" y="1432" type="line"/>
      <point x="48" y="1432" type="line"/>
    </contour>
    <contour>
      <point x="561" y="804" type="line"/>
      <point x="1081" y="804" type="line"/>
      <point x="1081" y="1054" type="line"/>
      <point x="561" y="1054" type="line"/>
    </contour>
    <contour>
      <point x="969" y="1235" type="curve" smooth="yes"/>
      <point x="1089" y="1235"/>
      <point x="1180" y="1325"/>
      <point x="1180" y="1443" type="curve" smooth="yes"/>
      <point x="1180" y="1563"/>
      <point x="1092" y="1650"/>
      <point x="969" y="1650" type="curve" smooth="yes"/>
      <point x="847" y="1650"/>
      <point x="756" y="1561"/>
      <point x="756" y="1443" type="curve" smooth="yes"/>
      <point x="756" y="1327"/>
      <point x="850" y="1235"/>
    </contour>
  </outline>
</glyph>
<glyph name="lj" format="2">
  <advance width="1200"/>
  <unicode hex="01C9"/>
  <outline>
    <contour>
      <point x="796" y="-451" type="curve" smooth="yes"/>
      <point x="1046" y="-451"/>
      <point x="1201" y="-303"/>
      <point x="1201" y="-56" type="curve" smooth="yes"/>
      <point x="1201" y="1054" type="line"/>
      <point x="911" y="1054" type="line"/>
      <point x="911" y="-54" type="line" smooth="yes"/>
      <point x="911" y="-148"/>
      <point x="864" y="-191"/>
      <point x="779" y="-191" type="curve" smooth="yes"/>
      <point x="717" y="-191"/>
      <point x="670" y="-169"/>
      <point x="612" y="-122" type="curve"/>
      <point x="459" y="-328" type="line"/>
      <point x="557" y="-409"/>
      <point x="671" y="-451"/>
    </contour>
    <contour>
      <point x="595" y="0" type="curve" smooth="yes"/>
      <point x="712" y="0"/>
      <point x="799" y="33"/>
      <point x="878" y="108" type="curve"/>
      <point x="729" y="329" type="line"/>
      <point x="691" y="294"/>
      <point x="659" y="280"/>
      <point x="619" y="280" type="curve" smooth="yes"/>
      <point x="545" y="280"/>
      <point x="504" y="328"/>
      <point x="504" y="416" type="curve" smooth="yes"/>
      <point x="504" y="1460" type="line"/>
      <point x="214" y="1460" type="line"/>
      <point x="214" y="414" type="line" smooth="yes"/>
      <point x="214" y="154"/>
      <point x="355" y="0"/>
    </contour>
    <contour>
      <point x="10" y="1210" type="line"/>
      <point x="385" y="1210" type="line"/>
      <point x="385" y="1460" type="line"/>
      <point x="10" y="1460" type="line"/>
    </contour>
    <contour>
      <point x="654" y="804" type="line"/>
      <point x="1113" y="804" type="line"/>
      <point x="1113" y="1054" type="line"/>
      <point x="654" y="1054" type="line"/>
    </contour>
    <contour>
      <point x="1001" y="1235" type="curve" smooth="yes"/>
      <point x="1121" y="1235"/>
      <point x="1212" y="1325"/>
      <point x="1212" y="1443" type="curve" smooth="yes"/>
      <point x="1212" y="1564"/>
      <point x="1123" y="1650"/>
      <point x="1001" y="1650" type="curve" smooth="yes"/>
      <point x="880" y="1650"/>
      <point x="788" y="1562"/>
      <point x="788" y="1443" type="curve" smooth="yes"/>
      <point x="788" y="1327"/>
      <point x="882" y="1235"/>
    </contour>
  </outline>
</glyph>
<glyph name="NJ" format="2">
  <advance width="1200"/>
  <unicode hex="01CA"/>
  <outline>
    <contour>
      <point x="6" y="0" type="line"/>
      <point x="236" y="0" type="line"/>
      <point x="236" y="398" type="line"/>
      <point x="193" y="1116" type="line"/>
      <point x="214" y="1116" type="line"/>
      <point x="416" y="0" type="line"/>
      <point x="724" y="0" type="line"/>
      <point x="724" y="1432" type="line"/>
      <point x="494" y="1432" type="line"/>
      <point x="494" y="1135" type="line"/>
      <point x="548" y="401" type="line"/>
      <point x="527" y="401" type="line"/>
      <point x="341" y="1432" type="line"/>
      <point x="6" y="1432" type="line"/>
    </contour>
    <contour>
      <point x="897" y="-35" type="curve" smooth="yes"/>
      <point x="1085" y="-35"/>
      <point x="1196" y="93"/>
      <point x="1196" y="310" type="curve" smooth="yes"/>
      <point x="1196" y="1432" type="line"/>
      <point x="934" y="1432" type="line"/>
      <point x="934" y="321" type="line" smooth="yes"/>
      <point x="934" y="252"/>
      <point x="907" y="217"/>
      <point x="853" y="217" type="curve" smooth="yes"/>
      <point x="832" y="217"/>
      <point x="814" y="221"/>
      <point x="796" y="228" type="curve"/>
      <point x="749" y="-11" type="line"/>
      <point x="793" y="-27"/>
      <point x="841" y="-35"/>
    </contour>
  </outline>
</glyph>
<glyph name="jdotless" format="2">
  <advance width="1200"/>
  <unicode hex="0237"/>
  <anchor x="715" y="1054" name="top"/>
  <outline>
    <contour>
      <point x="437" y="-451" type="curve" smooth="yes"/>
      <point x="737" y="-451"/>
      <point x="917" y="-272"/>
      <point x="917" y="26" type="curve" smooth="yes"/>
      <point x="917" y="1054" type="line"/>
      <point x="573" y="1054" type="line"/>
      <point x="573" y="14" type="line" smooth="yes"/>
      <point x="573" y="-92"/>
      <point x="518" y="-153"/>
      <point x="420" y="-153" type="curve" smooth="yes"/>
      <point x="351" y="-153"/>
      <point x="291" y="-128"/>
      <point x="220" y="-75" type="curve"/>
      <point x="58" y="-327" type="line"/>
      <point x="168" y="-408"/>
      <point x="297" y="-451"/>
    </contour>
    <contour>
      <point x="190" y="804" type="line"/>
      <point x="829" y="804" type="line"/>
      <point x="829" y="1054" type="line"/>
      <point x="190" y="1054" type="line"/>
    </contour>
  </outline>
</glyph>
<glyph name="dhook" format="2">
  <advance width="1200"/>
  <unicode hex="0257"/>
  <outline>
    <contour>
      <point x="411" y="-35" type="curve" smooth="yes"/>
      <point x="511" y="-35"/>
      <point x="595" y="31"/>
      <point x="645" y="151" type="curve"/>
      <point x="655" y="151" type="line"/>
      <point x="655" y="0" type="line"/>
      <point x="958" y="0" type="line"/>
      <point x="958" y="1092" type="line" smooth="yes"/>
      <point x="958" y="1205"/>
      <point x="1001" y="1259"/>
      <point x="1083" y="1259" type="curve" smooth="yes"/>
      <point x="1114" y="1259"/>
      <point x="1135" y="1254"/>
      <point x="1160" y="1245" type="curve"/>
      <point x="1220" y="1533" type="line"/>
      <point x="1167" y="1550"/>
      <point x="1111" y="1559"/>
      <point x="1042" y="1559" type="curve" smooth="yes"/>
      <point x="818" y="1559"/>
      <point x="646" y="1404"/>
      <point x="646" y="1124" type="curve" smooth="yes"/>
      <point x="646" y="911" type="line"/>
      <point x="636" y="911" type="line"/>
      <point x="585" y="1030"/>
      <point x="507" y="1089"/>
      <point x="403" y="1089" type="curve" smooth="yes"/>
      <point x="200" y="1089"/>
      <point x="66" y="872"/>
      <point x="66" y="541" type="curve" smooth="yes"/>
      <point x="66" y="513" type="line" smooth="yes"/>
      <point x="66" y="187"/>
      <point x="206" y="-35"/>
    </contour>
    <contour>
      <point x="523" y="235" type="curve" smooth="yes"/>
      <point x="436" y="235"/>
      <point x="387" y="333"/>
      <point x="387" y="505" type="curve" smooth="yes"/>
      <point x="387" y="548" type="line" smooth="yes"/>
      <point x="387" y="721"/>
      <point x="436" y="819"/>
      <point x="523" y="819" type="curve" smooth="yes"/>
      <point x="605" y="819"/>
      <point x="656" y="716"/>
      <point x="656" y="548" type="curve" smooth="yes"/>
      <point x="656" y="505" type="line" smooth="yes"/>
      <point x="656" y="337"/>
      <point x="605" y="235"/>
    </contour>
  </outline>
</glyph>
<glyph name="acutecomb" format="2">
  <unicode hex="0301"/>
  <anchor x="0" y="1054" name="_top"/>
  <outline>
    <contour>
      <point x="-149" y="1260" type="line"/>
      <point x="149" y="1260" type="line"/>
      <point x="459" y="1630" type="line"/>
      <point x="459" y="1644" type="line"/>
      <point x="69" y="1644" type="line"/>
      <point x="-149" y="1274" type="line"/>
    </contour>
  </outline>
</glyph>
<glyph name="macroncomb" format="2">
  <unicode hex="0304"/>
  <anchor x="0" y="1054" name="_top"/>
  <outline>
    <contour>
      <point x="-325" y="1306" type="line"/>
      <point x="325" y="1306" type="line"/>
      <point x="325" y="1580" type="line"/>
      <point x="-325" y="1580" type="line"/>
    </contour>
  </outline>
</glyph>
<glyph name="dotaccentcomb" format="2">
  <unicode hex="0307"/>
  <anchor x="0" y="1054" name="_top"/>
  <outline>
    <contour>
      <point x="0" y="1235" type="curve" smooth="yes"/>
      <point x="123" y="1235"/>
      <point x="216" y="1328"/>
      <point x="216" y="1449" type="curve" smooth="yes"/>
      <point x="216" y="1568"/>
      <point x="123" y="1663"/>
      <point x="0" y="1663" type="curve" smooth="yes"/>
      <point x="-121" y="1663"/>
      <point x="-216" y="1568"/>
      <point x="-216" y="1449" type="curve" smooth="yes"/>
      <point x="-216" y="1328"/>
      <point x="-120" y="1235"/>
    </contour>
  </outline>
</glyph>
<glyph name="dieresiscomb" format="2">
  <unicode hex="0308"/>
  <anchor x="0" y="1054" name="_top"/>
  <outline>
    <contour>
      <point x="-290" y="1235" type="curve" smooth="yes"/>
      <point x="-173" y="1235"/>
      <point x="-84" y="1324"/>
      <point x="-84" y="1439" type="curve" smooth="yes"/>
      <point x="-84" y="1553"/>
      <point x="-174" y="1643"/>
      <point x="-290" y="1643" type="curve" smooth="yes"/>
      <point x="-405" y="1643"/>
      <point x="-496" y="1552"/>
      <point x="-496" y="1439" type="curve" smooth="yes"/>
      <point x="-496" y="1325"/>
      <point x="-405" y="1235"/>
    </contour>
    <contour>
      <point x="290" y="1235" type="curve" smooth="yes"/>
      <point x="407" y="1235"/>
      <point x="496" y="1324"/>
      <point x="496" y="1439" type="curve" smooth="yes"/>
      <point x="496" y="1553"/>
      <point x="406" y="1643"/>
      <point x="290" y="1643" type="curve" smooth="yes"/>
      <point x="175" y="1643"/>
      <point x="84" y="1552"/>
      <point x="84" y="1439" type="curve" smooth="yes"/>
      <point x="84" y="1325"/>
      <point x="175" y="1235"/>
    </contour>
  </outline>
</glyph>
<glyph name="hookabovecomb" format="2">
  <unicode hex="0309"/>
  <anchor x="0" y="1054" name="_top"/>
  <outline>
    <contour>
      <point x="-37" y="1162" type="line"/>
      <point x="200" y="1182"/>
      <point x="331" y="1300"/>
      <point x="331" y="1493" type="curve" smooth="yes"/>
      <point x="331" y="1672"/>
      <point x="199" y="1787"/>
      <point x="-7" y="1787" type="curve" smooth="yes"/>
      <point x="-93" y="1787"/>
      <point x="-187" y="1766"/>
      <point x="-267" y="1730" type="curve"/>
      <point x="-206" y="1518" type="line"/>
      <point x="-141" y="1540"/>
      <point x="-74" y="1551"/>
      <point x="-13" y="1551" type="curve" smooth="yes"/>
      <point x="65" y="1551"/>
      <point x="101" y="1525"/>
      <point x="101" y="1471" type="curve" smooth="yes"/>
      <point x="101" y="1411"/>
      <point x="49" y="1385"/>
      <point x="-68" y="1378" type="curve"/>
    </contour>
  </outline>
</glyph>
<glyph name="ringcomb" format="2">
  <unicode hex="030A"/>
  <anchor x="0" y="1054" name="_top"/>
  <outline>
    <contour>
      <point x="0" y="1148" type="curve" smooth="yes"/>
      <point x="178" y="1148"/>
      <point x="322" y="1286"/>
      <point x="322" y="1458" type="curve" smooth="yes"/>
      <point x="322" y="1630"/>
      <point x="178" y="1768"/>
      <point x="0" y="1768" type="curve" smooth="yes"/>
      <point x="-178" y="1768"/>
      <point x="-322" y="1630"/>
      <point x="-322" y="1458" type="curve" smooth="yes"/>
      <point x="-322" y="1286"/>
      <point x="-178" y="1148"/>
    </contour>
    <contour>
      <point x="0" y="1342" type="curve" smooth="yes"/>
      <point x="-68" y="1342"/>
      <point x="-118" y="1391"/>
      <point x="-118" y="1458" type="curve" smooth="yes"/>
      <point x="-118" y="1525"/>
      <point x="-68" y="1574"/>
      <point x="0" y="1574" type="curve" smooth="yes"/>
      <point x="68" y="1574"/>
      <point x="118" y="1525"/>
      <point x="118" y="1458" type="curve" smooth="yes"/>
      <point x="118" y="1391"/>
      <point x="68" y="1342"/>
    </contour>
  </outline>
</glyph>
<glyph name="hungarumlautcomb" format="2">
  <unicode hex="030B"/>
  <anchor x="0" y="1054" name="_top"/>
  <outline>
    <contour>
      <point x="81" y="1260" type="line"/>
      <point x="349" y="1260" type="line"/>
      <point x="599" y="1630" type="line"/>
      <point x="599" y="1644" type="line"/>
      <point x="239" y="1644" type="line"/>
      <point x="81" y="1274" type="line"/>
    </contour>
    <contour>
      <point x="-389" y="1260" type="line"/>
      <point x="-121" y="1260" type="line"/>
      <point x="129" y="1630" type="line"/>
      <point x="129" y="1644" type="line"/>
      <point x="-231" y="1644" type="line"/>
      <point x="-389" y="1274" type="line"/>
    </contour>
  </outline>
</glyph>
<glyph name="horncomb" format="2">
  <unicode hex="031B"/>
  <anchor x="0" y="1432" name="_horn"/>
  <outline>
    <contour>
      <point x="-60" y="1268" type="line"/>
      <point x="18" y="1268" type="line" smooth="yes"/>
      <point x="261" y="1268"/>
      <point x="425" y="1399"/>
      <point x="425" y="1592" type="curve" smooth="yes"/>
      <point x="425" y="1683"/>
      <point x="397" y="1763"/>
      <point x="337" y="1845" type="curve"/>
      <point x="52" y="1679" type="line"/>
      <point x="91" y="1622"/>
      <point x="105" y="1585"/>
      <point x="105" y="1538" type="curve" smooth="yes"/>
      <point x="105" y="1470"/>
      <point x="63" y="1432"/>
      <point x="-10" y="1432" type="curve" smooth="yes"/>
      <point x="-60" y="1432" type="line"/>
    </contour>
  </outline>
</glyph>
<glyph name="cedillacomb" format="2">
  <unicode hex="0327"/>
  <anchor x="0" y="0" name="_bottom"/>
  <outline>
    <contour>
      <point x="5" y="-674" type="curve" smooth="yes"/>
      <point x="193" y="-674"/>
      <point x="324" y="-555"/>
      <point x="324" y="-384" type="curve" smooth="yes"/>
      <point x="324" y="-217"/>
      <point x="216" y="-108"/>
      <point x="51" y="-108" type="curve" smooth="yes"/>
      <point x="-26" y="-108"/>
      <point x="-99" y="-140"/>
      <point x="-154" y="-198" type="curve"/>
      <point x="-71" y="-252" type="line"/>
      <point x="101" y="21" type="line"/>
      <point x="-67" y="21" type="line"/>
      <point x="-206" y="-205" type="line"/>
      <point x="-81" y="-309" type="line"/>
      <point x="-53" y="-291"/>
      <point x="-21" y="-281"/>
      <point x="12" y="-281" type="curve" smooth="yes"/>
      <point x="71" y="-281"/>
      <point x="108" y="-316"/>
      <point x="108" y="-374" type="curve" smooth="yes"/>
      <point x="108" y="-431"/>
      <point x="66" y="-468"/>
      <point x="3" y="-468" type="curve" smooth="yes"/>
      <point x="-58" y="-468"/>
      <point x="-109" y="-430"/>
      <point x="-146" y="-358" type="curve"/>
      <point x="-334" y="-464" type="line"/>
      <point x="-268" y="-591"/>
      <point x="-135" y="-674"/>
    </contour>
  </outline>
</glyph>
<glyph name="endash" format="2">
  <advance width="1200"/>
  <unicode hex="2013"/>
  <outline>
    <contour>
      <point x="58" y="475" type="line"/>
      <point x="1142" y="475" type="line"/>
      <point x="1142" y="815" type="line"/>
      <point x="58" y="815" type="line"/>
    </contour>
  </outline>
</glyph>
<glyph name="guilsinglleft" format="2">
  <advance width="1200"/>
  <unicode hex="2039"/>
  <outline>
    <contour>
      <point x="775" y="2" type="line"/>
      <point x="1010" y="204" type="line"/>
      <point x="713" y="532" type="line"/>
      <point x="1010" y="860" type="line"/>
      <point x="775" y="1062" type="line"/>
      <point x="289" y="532" type="line"/>
    </contour>
  </outline>
</glyph>
<glyph name="foursuperior" format="2">
  <advance width="1200"/>
  <unicode hex="2074"/>
  <outline>
    <contour>
      <point x="574" y="683" type="line"/>
      <point x="880" y="683" type="line"/>
      <point x="880" y="1715" type="line"/>
      <point x="588" y="1715" type="line"/>
      <point x="122" y="1099" type="line"/>
      <point x="122" y="861" type="line"/>
      <point x="1032" y="861" type="line"/>
      <point x="1032" y="1131" type="line"/>
      <point x="778" y="1131" type="line"/>
      <point x="707" y="1103" type="line"/>
      <point x="409" y="1103" type="line"/>
      <point x="409" y="1117" type="line"/>
      <point x="602" y="1373" type="line"/>
      <point x="631" y="1373" type="line"/>
      <point x="616" y="1388" type="line"/>
      <point x="616" y="1051" type="line"/>
      <point x="574" y="1009" type="line"/>
    </contour>
  </outline>
</glyph>
<glyph name="euro" format="2">
  <advance width="1200"/>
  <unicode hex="20AC"/>
  <outline>
    <contour>
      <point x="712" y="-35" type="curve" smooth="yes"/>
      <point x="918" y="-35"/>
      <point x="1053" y="39"/>
      <point x="1168" y="215" type="curve"/>
      <point x="940" y="377" type="line"/>
      <point x="877" y="282"/>
      <point x="811" y="245"/>
      <point x="707" y="245" type="curve" smooth="yes"/>
      <point x="547" y="245"/>
      <point x="460" y="355"/>
      <point x="460" y="558" type="curve" smooth="yes"/>
      <point x="460" y="874" type="line" smooth="yes"/>
      <point x="460" y="1079"/>
      <point x="545" y="1187"/>
      <point x="707" y="1187" type="curve" smooth="yes"/>
      <point x="811" y="1187"/>
      <point x="877" y="1150"/>
      <point x="940" y="1055" type="curve"/>
      <point x="1168" y="1217" type="line"/>
      <point x="1053" y="1393"/>
      <point x="918" y="1467"/>
      <point x="712" y="1467" type="curve" smooth="yes"/>
      <point x="382" y="1467"/>
      <point x="172" y="1226"/>
      <point x="172" y="874" type="curve" smooth="yes"/>
      <point x="172" y="558" type="line" smooth="yes"/>
      <point x="172" y="212"/>
      <point x="382" y="-35"/>
    </contour>
    <contour>
      <point x="2" y="453" type="line"/>
      <point x="902" y="453" type="line"/>
      <point x="902" y="653" type="line"/>
      <point x="2" y="653" type="line"/>
    </contour>
    <contour>
      <point x="2" y="779" type="line"/>
      <point x="902" y="779" type="line"/>
      <point x="902" y="979" type="line"/>
      <point x="2" y="979" type="line"/>
    </contour>
  </outline>
</glyph>
<glyph name="upArrow" format="2">
  <advance width="1200"/>
  <unicode hex="2191"/>
  <outline>
    <contour>
      <point x="210" y="575" type="line"/>
      <point x="578" y="946" type="line"/>
      <point x="622" y="946" type="line"/>
      <point x="990" y="575" type="line"/>
      <point x="1180" y="775" type="line"/>
      <point x="600" y="1307" type="line"/>
      <point x="20" y="775" type="line"/>
    </contour>
    <contour>
      <point x="439" y="-55" type="line"/>
      <point x="761" y="-55" type="line"/>
      <point x="761" y="664" type="line"/>
      <point x="699" y="1092" type="line"/>
      <point x="501" y="1092" type="line"/>
      <point x="439" y="664" type="line"/>
    </contour>
  </outline>
</glyph>
<glyph name="rightArrow" format="2">
  <advance width="1200"/>
  <unicode hex="2192"/>
  <outline>
    <contour>
      <point x="602" y="24" type="line"/>
      <point x="1172" y="645" type="line"/>
      <point x="602" y="1266" type="line"/>
      <point x="400" y="1075" type="line"/>
      <point x="811" y="667" type="line"/>
      <point x="811" y="623" type="line"/>
      <point x="400" y="215" type="line"/>
    </contour>
    <contour>
      <point x="70" y="490" type="line"/>
      <point x="529" y="490" type="line"/>
      <point x="957" y="546" type="line"/>
      <point x="957" y="744" type="line"/>
      <point x="529" y="800" type="line"/>
      <point x="70" y="800" type="line"/>
    </contour>
  </outline>
</glyph>
<glyph name="minus" format="2">
  <advance width="1200"/>
  <unicode hex="2212"/>
  <outline>
    <contour>
      <point x="114" y="485" type="line"/>
      <point x="1086" y="485" type="line"/>
      <point x="1086" y="805" type="line"/>
      <point x="114" y="805" type="line"/>
    </contour>
  </outline>
</glyph>
<glyph name="proportion" format="2">
  <advance width="1200"/>
  <unicode hex="2237"/>
  <outline>
    <contour>
      <point x="876" y="778" type="curve" smooth="yes"/>
      <point x="989" y="778"/>
      <point x="1074" y="864"/>
      <point x="1074" y="978" type="curve" smooth="yes"/>
      <point x="1074" y="1092"/>
      <point x="989" y="1178"/>
      <point x="876" y="1178" type="curve" smooth="yes"/>
      <point x="763" y="1178"/>
      <point x="678" y="1092"/>
      <point x="678" y="978" type="curve" smooth="yes"/>
      <point x="678" y="864"/>
      <point x="763" y="778"/>
    </contour>
    <contour>
      <point x="324" y="112" type="curve" smooth="yes"/>
      <point x="437" y="112"/>
      <point x="522" y="198"/>
      <point x="522" y="312" type="curve" smooth="yes"/>
      <point x="522" y="426"/>
      <point x="437" y="512"/>
      <point x="324" y="512" type="curve" smooth="yes"/>
      <point x="211" y="512"/>
      <point x="126" y="426"/>
      <point x="126" y="312" type="curve" smooth="yes"/>
      <point x="126" y="198"/>
      <point x="211" y="112"/>
    </contour>
    <contour>
      <point x="876" y="112" type="curve" smooth="yes"/>
      <point x="989" y="112"/>
      <point x="1074" y="198"/>
      <point x="1074" y="312" type="curve" smooth="yes"/>
      <point x="1074" y="426"/>
      <point x="989" y="512"/>
      <point x="876" y="512" type="curve" smooth="yes"/>
      <point x="763" y="512"/>
      <point x="678" y="426"/>
      <point x="678" y="312" type="curve" smooth="yes"/>
      <point x="678" y="198"/>
      <point x="763" y="112"/>
    </contour>
    <contour>
      <point x="324" y="778" type="curve" smooth="yes"/>
      <point x="437" y="778"/>
      <point x="522" y="864"/>
      <point x="522" y="978" type="curve" smooth="yes"/>
      <point x="522" y="1092"/>
      <point x="437" y="1178"/>
      <point x="324" y="1178" type="curve" smooth="yes"/>
      <point x="211" y="1178"/>
      <point x="126" y="1092"/>
      <point x="126" y="978" type="curve" smooth="yes"/>
      <point x="126" y="864"/>
      <point x="211" y="778"/>
    </contour>
  </outline>
</glyph>
<glyph name="lessequal" format="2">
  <advance width="1200"/>
  <unicode hex="2264"/>
  <outline>
    <contour>
      <point x="1106" y="328" type="line"/>
      <point x="1106" y="652" type="line"/>
      <point x="705" y="758" type="line"/>
      <point x="446" y="810" type="line"/>
      <point x="446" y="818" type="line"/>
      <point x="705" y="870" type="line"/>
      <point x="1106" y="976" type="line"/>
      <point x="1106" y="1300" type="line"/>
      <point x="94" y="970" type="line"/>
      <point x="94" y="658" type="line"/>
    </contour>
    <contour>
      <point x="94" y="0" type="line"/>
      <point x="1106" y="0" type="line"/>
      <point x="1106" y="286" type="line"/>
      <point x="94" y="286" type="line"/>
    </contour>
  </outline>
</glyph>
<glyph name="boxHeavyTripleDashHorizontal" format="2">
  <advance width="1200"/>
  <unicode hex="2505"/>
  <outline>
    <contour>
      <point x="867" y="338" type="line"/>
      <point x="1133" y="338" type="line"/>
      <point x="1133" y="950" type="line"/>
      <point x="867" y="950" type="line"/>
    </contour>
    <contour>
      <point x="67" y="338" type="line"/>
      <point x="333" y="338" type="line"/>
      <point x="333" y="950" type="line"/>
      <point x="67" y="950" type="line"/>
    </contour>
    <contour>
      <point x="467" y="338" type="line"/>
      <point x="733" y="338" type="line"/>
      <point x="733" y="950" type="line"/>
      <point x="467" y="950" type="line"/>
    </contour>
  </outline>
</glyph>
<glyph name="boxHeavyTripleDashVertical" format="2">
  <advance width="1200"/>
  <unicode hex="2507"/>
  <outline>
    <contour>
      <point x="294" y="366" type="line"/>
      <point x="906" y="366" type="line"/>
      <point x="906" y="922" type="line"/>
      <point x="294" y="922" type="line"/>
    </contour>
    <contour>
      <point x="294" y="-467" type="line"/>
      <point x="906" y="-467" type="line"/>
      <point x="906" y="88" type="line"/>
      <point x="294" y="88" type="line"/>
    </contour>
    <contour>
      <point x="294" y="1200" type="line"/>
      <point x="906" y="1200" type="line"/>
      <point x="906" y="1755" type="line"/>
      <point x="294" y="1755" type="line"/>
    </contour>
  </outline>
</glyph>
<glyph name="boxLightDownAndLeft" format="2">
  <advance width="1200"/>
  <unicode hex="2510"/>
  <outline>
    <contour>
      <point x="430" y="-656" type="line"/>
      <point x="770" y="-656" type="line"/>
      <point x="770" y="814" type="line"/>
      <point x="-170" y="814" type="line"/>
      <point x="-170" y="474" type="line"/>
      <point x="430" y="474" type="line"/>
    </contour>
  </outline>
</glyph>
<glyph name="boxDownHeavyAndLeftLight" format="2">
  <advance width="1200"/>
  <unicode hex="2512"/>
  <outline>
    <contour>
      <point x="294" y="-656" type="line"/>
      <point x="906" y="-656" type="line"/>
      <point x="906" y="814" type="line"/>
      <point x="-170" y="814" type="line"/>
      <point x="-170" y="474" type="line"/>
      <point x="294" y="474" type="line"/>
    </contour>
  </outline>
</glyph>
<glyph name="boxHeavyUpAndRight" format="2">
  <advance width="1200"/>
  <unicode hex="2517"/>
  <outline>
    <contour>
      <point x="294" y="338" type="line"/>
      <point x="1370" y="338" type="line"/>
      <point x="1370" y="950" type="line"/>
      <point x="906" y="950" type="line"/>
      <point x="906" y="1944" type="line"/>
      <point x="294" y="1944" type="line"/>
    </contour>
  </outline>
</glyph>
<glyph name="boxUpHeavyAndLeftLight" format="2">
  <advance width="1200"/>
  <unicode hex="251A"/>
  <outline>
    <contour>
      <point x="-170" y="474" type="line"/>
      <point x="906" y="474" type="line"/>
      <point x="906" y="1944" type="line"/>
      <point x="294" y="1944" type="line"/>
      <point x="294" y="814" type="line"/>
      <point x="-170" y="814" type="line"/>
    </contour>
  </outline>
</glyph>
<glyph name="boxLightVerticalAndLeft" format="2">
  <advance width="1200"/>
  <unicode hex="2524"/>
  <outline>
    <contour>
      <point x="430" y="-656" type="line"/>
      <point x="770" y="-656" type="line"/>
      <point x="770" y="1944" type="line"/>
      <point x="430" y="1944" type="line"/>
      <point x="430" y="814" type="line"/>
      <point x="-170" y="814" type="line"/>
      <point x="-170" y="474" type="line"/>
      <point x="430" y="474" type="line"/>
    </contour>
  </outline>
</glyph>
<glyph name="boxDownHeavyAndLeftUpLight" format="2">
  <advance width="1200"/>
  <unicode hex="2527"/>
  <outline>
    <contour>
      <point x="294" y="-656" type="line"/>
      <point x="906" y="-656" type="line"/>
      <point x="906" y="814" type="line"/>
      <point x="770" y="814" type="line"/>
      <point x="770" y="1944" type="line"/>
      <point x="430" y="1944" type="line"/>
      <point x="430" y="814" type="line"/>
      <point x="-170" y="814" type="line"/>
      <point x="-170" y="474" type="line"/>
      <point x="294" y="474" type="line"/>
    </contour>
  </outline>
</glyph>
<glyph name="boxVerticalHeavyAndLeftLight" format="2">
  <advance width="1200"/>
  <unicode hex="2528"/>
  <outline>
    <contour>
      <point x="294" y="-656" type="line"/>
      <point x="906" y="-656" type="line"/>
      <point x="906" y="1944" type="line"/>
      <point x="294" y="1944" type="line"/>
      <point x="294" y="814" type="line"/>
      <point x="-170" y="814" type="line"/>
      <point x="-170" y="474" type="line"/>
      <point x="294" y="474" type="line"/>
    </contour>
  </outline>
</glyph>
<glyph name="boxHeavyVerticalAndLeft" format="2">
  <advance width="1200"/>
  <unicode hex="252B"/>
  <outline>
    <contour>
      <point x="294" y="-656" type="line"/>
      <point x="906" y="-656" type="line"/>
      <point x="906" y="1944" type="line"/>
      <point x="294" y="1944" type="line"/>
      <point x="294" y="950" type="line"/>
      <point x="-170" y="950" type="line"/>
      <point x="-170" y="338" type="line"/>
      <point x="294" y="338" type="line"/>
    </contour>
  </outline>
</glyph>
<glyph name="boxLeftHeavyAndRightDownLight" format="2">
  <advance width="1200"/>
  <unicode hex="252D"/>
  <outline>
    <contour>
      <point x="430" y="-656" type="line"/>
      <point x="770" y="-656" type="line"/>
      <point x="770" y="474" type="line"/>
      <point x="1370" y="474" type="line"/>
      <point x="1370" y="814" type="line"/>
      <point x="770" y="814" type="line"/>
      <point x="770" y="950" type="line"/>
      <point x="-170" y="950" type="line"/>
      <point x="-170" y="338" type="line"/>
      <point x="430" y="338" type="line"/>
    </contour>
  </outline>
</glyph>
<glyph name="boxRightHeavyAndLeftDownLight" format="2">
  <advance width="1200"/>
  <unicode hex="252E"/>
  <outline>
    <contour>
      <point x="430" y="-656" type="line"/>
      <point x="770" y="-656" type="line"/>
      <point x="770" y="338" type="line"/>
      <point x="1370" y="338" type="line"/>
      <point x="1370" y="950" type="line"/>
      <point x="430" y="950" type="line"/>
      <point x="430" y="814" type="line"/>
      <point x="-170" y="814" type="line"/>
      <point x="-170" y="474" type="line"/>
      <point x="430" y="474" type="line"/>
    </contour>
  </outline>
</glyph>
<glyph name="boxUpHeavyAndHorizontalLight" format="2">
  <advance width="1200"/>
  <unicode hex="2538"/>
  <outline>
    <contour>
      <point x="-170" y="474" type="line"/>
      <point x="1370" y="474" type="line"/>
      <point x="1370" y="814" type="line"/>
      <point x="906" y="814" type="line"/>
      <point x="906" y="1944" type="line"/>
      <point x="294" y="1944" type="line"/>
      <point x="294" y="814" type="line"/>
      <point x="-170" y="814" type="line"/>
    </contour>
  </outline>
</glyph>
<glyph name="boxVerticalLightAndHorizontalHeavy" format="2">
  <advance width="1200"/>
  <unicode hex="253F"/>
  <outline>
    <contour>
      <point x="430" y="-656" type="line"/>
      <point x="770" y="-656" type="line"/>
      <point x="770" y="338" type="line"/>
      <point x="1370" y="338" type="line"/>
      <point x="1370" y="950" type="line"/>
      <point x="770" y="950" type="line"/>
      <point x="770" y="1944" type="line"/>
      <point x="430" y="1944" type="line"/>
      <point x="430" y="950" type="line"/>
      <point x="-170" y="950" type="line"/>
      <point x="-170" y="338" type="line"/>
      <point x="430" y="338" type="line"/>
    </contour>
  </outline>
</glyph>
<glyph name="boxRightDownHeavyAndLeftUpLight" format="2">
  <advance width="1200"/>
  <unicode hex="2546"/>
  <outline>
    <contour>
      <point x="294" y="-656" type="line"/>
      <point x="906" y="-656" type="line"/>
      <point x="906" y="338" type="line"/>
      <point x="1370" y="338" type="line"/>
      <point x="1370" y="950" type="line"/>
      <point x="770" y="950" type="line"/>
      <point x="770" y="1944" type="line"/>
      <point x="430" y="1944" type="line"/>
      <point x="430" y="950" type="line"/>
      <point x="294" y="950" type="line"/>
      <point x="294" y="814" type="line"/>
      <point x="-170" y="814" type="line"/>
      <point x="-170" y="474" type="line"/>
      <point x="294" y="474" type="line"/>
    </contour>
  </outline>
</glyph>
<glyph name="boxLightDoubleDashVertical" format="2">
  <advance width="1200"/>
  <unicode hex="254E"/>
  <outline>
    <contour>
      <point x="430" y="957" type="line"/>
      <point x="770" y="957" type="line"/>
      <point x="770" y="1582" type="line"/>
      <point x="430" y="1582" type="line"/>
    </contour>
    <contour>
      <point x="430" y="-293" type="line"/>
      <point x="770" y="-293" type="line"/>
      <point x="770" y="332" type="line"/>
      <point x="430" y="332" type="line"/>
    </contour>
  </outline>
</glyph>
<glyph name="boxHeavyDoubleDashVertical" format="2">
  <advance width="1200"/>
  <unicode hex="254F"/>
  <outline>
    <contour>
      <point x="294" y="957" type="line"/>
      <point x="906" y="957" type="line"/>
      <point x="906" y="1582" type="line"/>
      <point x="294" y="1582" type="line"/>
    </contour>
    <contour>
      <point x="294" y="-293" type="line"/>
      <point x="906" y="-293" type="line"/>
      <point x="906" y="332" type="line"/>
      <point x="294" y="332" type="line"/>
    </contour>
  </outline>
</glyph>
<glyph name="boxDoubleHorizontal" format="2">
  <advance width="1200"/>
  <unicode hex="2550"/>
  <outline>
    <contour>
      <point x="-170" y="814" type="line"/>
      <point x="1370" y="814" type="line"/>
      <point x="1370" y="1154" type="line"/>
      <point x="-170" y="1154" type="line"/>
    </contour>
    <contour>
      <point x="-170" y="134" type="line"/>
      <point x="1370" y="134" type="line"/>
      <point x="1370" y="474" type="line"/>
      <point x="-170" y="474" type="line"/>
    </contour>
  </outline>
</glyph>
<glyph name="boxUpSingleAndLeftDouble" format="2">
  <advance width="1200"/>
  <unicode hex="255B"/>
  <outline>
    <contour>
      <point x="-170" y="134" type="line"/>
      <point x="770" y="134" type="line"/>
      <point x="770" y="1944" type="line"/>
      <point x="430" y="1944" type="line"/>
      <point x="430" y="1154" type="line"/>
      <point x="-170" y="1154" type="line"/>
      <point x="-170" y="814" type="line"/>
      <point x="430" y="814" type="line"/>
      <point x="430" y="474" type="line"/>
      <point x="-170" y="474" type="line"/>
    </contour>
  </outline>
</glyph>
<glyph name="boxUpDoubleAndLeftSingle" format="2">
  <advance width="1200"/>
  <unicode hex="255C"/>
  <outline>
    <contour>
      <point x="-170" y="474" type="line"/>
      <point x="1110" y="474" type="line"/>
      <point x="1110" y="1944" type="line"/>
      <point x="770" y="1944" type="line"/>
      <point x="770" y="814" type="line"/>
      <point x="430" y="814" type="line"/>
      <point x="430" y="1944" type="line"/>
      <point x="90" y="1944" type="line"/>
      <point x="90" y="814" type="line"/>
      <point x="-170" y="814" type="line"/>
    </contour>
  </outline>
</glyph>
<glyph name="boxVerticalSingleAndRightDouble" format="2">
  <advance width="1200"/>
  <unicode hex="255E"/>
  <outline>
    <contour>
      <point x="430" y="-656" type="line"/>
      <point x="770" y="-656" type="line"/>
      <point x="770" y="134" type="line"/>
      <point x="1370" y="134" type="line"/>
      <point x="1370" y="474" type="line"/>
      <point x="770" y="474" type="line"/>
      <point x="770" y="814" type="line"/>
      <point x="1370" y="814" type="line"/>
      <point x="1370" y="1154" type="line"/>
      <point x="770" y="1154" type="line"/>
      <point x="770" y="1944" type="line"/>
      <point x="430" y="1944" type="line"/>
    </contour>
  </outline>
</glyph>
<glyph name="boxLightArcUpAndRight" format="2">
  <advance width="1200"/>
  <unicode hex="2570"/>
  <outline>
    <contour>
      <point x="1030" y="474" type="curve" smooth="yes"/>
      <point x="1370" y="474" type="line"/>
      <point x="1370" y="814" type="line"/>
      <point x="1030" y="814" type="line" smooth="yes"/>
      <point x="863" y="814"/>
      <point x="770" y="907"/>
      <point x="770" y="1074" type="curve" smooth="yes"/>
      <point x="770" y="1944" type="line"/>
      <point x="430" y="1944" type="line"/>
      <point x="430" y="1074" type="line" smooth="yes"/>
      <point x="430" y="698"/>
      <point x="654" y="474"/>
    </contour>
  </outline>
</glyph>
<glyph name="boxLightUp" format="2">
  <advance width="1200"/>
  <unicode hex="2575"/>
  <outline>
    <contour>
      <point x="430" y="474" type="line"/>
      <point x="770" y="474" type="line"/>
      <point x="770" y="1944" type="line"/>
      <point x="430" y="1944" type="line"/>
    </contour>
  </outline>
</glyph>
<glyph name="boxHeavyUp" format="2">
  <advance width="1200"/>
  <unicode hex="2579"/>
  <outline>
    <contour>
      <point x="294" y="474" type="line"/>
      <point x="906" y="474" type="line"/>
      <point x="906" y="1944" type="line"/>
      <point x="294" y="1944" type="line"/>
    </contour>
  </outline>
</glyph>
<glyph name="boxLightLeftAndHeavyRight" format="2">
  <advance width="1200"/>
  <unicode hex="257C"/>
  <outline>
    <contour>
      <point x="430" y="338" type="line"/>
      <point x="1370" y="338" type="line"/>
      <point x="1370" y="950" type="line"/>
      <point x="430" y="950" type="line"/>
      <point x="430" y="814" type="line"/>
      <point x="-170" y="814" type="line"/>
      <point x="-170" y="474" type="line"/>
      <point x="430" y="474" type="line"/>
    </contour>
  </outline>
</glyph>
<glyph name="shademedium" format="2">
  <advance width="1200"/>
  <unicode hex="2592"/>
  <outline>
    <contour>
      <point x="8" y="1180" type="line"/>
      <point x="198" y="1180" type="line"/>
      <point x="198" y="1370" type="line"/>
      <point x="8" y="1370" type="line"/>
    </contour>
    <contour>
      <point x="8" y="823" type="line"/>
      <point x="198" y="823" type="line"/>
      <point x="198" y="1013" type="line"/>
      <point x="8" y="1013" type="line"/>
    </contour>
    <contour>
      <point x="8" y="465" type="line"/>
      <point x="198" y="465" type="line"/>
      <point x="198" y="655" type="line"/>
      <point x="8" y="655" type="line"/>
    </contour>
    <contour>
      <point x="8" y="108" type="line"/>
      <point x="198" y="108" type="line"/>
      <point x="198" y="298" type="line"/>
      <point x="8" y="298" type="line"/>
    </contour>
    <contour>
      <point x="8" y="-251" type="line"/>
      <point x="198" y="-251" type="line"/>
      <point x="198" y="-61" type="line"/>
      <point x="8" y="-61" type="line"/>
    </contour>
    <contour>
      <point x="208" y="1706" type="line"/>
      <point x="398" y="1706" type="line"/>
      <point x="398" y="1896" type="line"/>
      <point x="208" y="1896" type="line"/>
    </contour>
    <contour>
      <point x="208" y="1359" type="line"/>
      <point x="398" y="1359" type="line"/>
      <point x="398" y="1549" type="line"/>
      <point x="208" y="1549" type="line"/>
    </contour>
    <contour>
      <point x="208" y="1002" type="line"/>
      <point x="398" y="1002" type="line"/>
      <point x="398" y="1192" type="line"/>
      <point x="208" y="1192" type="line"/>
    </contour>
    <contour>
      <point x="208" y="644" type="line"/>
      <point x="398" y="644" type="line"/>
      <point x="398" y="834" type="line"/>
      <point x="208" y="834" type="line"/>
    </contour>
    <contour>
      <point x="208" y="286" type="line"/>
      <point x="398" y="286" type="line"/>
      <point x="398" y="476" type="line"/>
      <point x="208" y="476" type="line"/>
    </contour>
    <contour>
      <point x="208" y="-71" type="line"/>
      <point x="398" y="-71" type="line"/>
      <point x="398" y="119" type="line"/>
      <point x="208" y="119" type="line"/>
    </contour>
    <contour>
      <point x="208" y="-429" type="line"/>
      <point x="398" y="-429" type="line"/>
      <point x="398" y="-239" type="line"/>
      <point x="208" y="-239" type="line"/>
    </contour>
    <contour>
      <point x="405" y="1538" type="line"/>
      <point x="595" y="1538" type="line"/>
      <point x="595" y="1728" type="line"/>
      <point x="405" y="1728" type="line"/>
    </contour>
    <contour>
      <point x="405" y="1181" type="line"/>
      <point x="595" y="1181" type="line"/>
      <point x="595" y="1371" type="line"/>
      <point x="405" y="1371" type="line"/>
    </contour>
    <contour>
      <point x="405" y="823" type="line"/>
      <point x="595" y="823" type="line"/>
      <point x="595" y="1013" type="line"/>
      <point x="405" y="1013" type="line"/>
    </contour>
    <contour>
      <point x="405" y="465" type="line"/>
      <point x="595" y="465" type="line"/>
      <point x="595" y="655" type="line"/>
      <point x="405" y="655" type="line"/>
    </contour>
    <contour>
      <point x="405" y="107" type="line"/>
      <point x="595" y="107" type="line"/>
      <point x="595" y="297" type="line"/>
      <point x="405" y="297" type="line"/>
    </contour>
    <contour>
      <point x="405" y="-250" type="line"/>
      <point x="595" y="-250" type="line"/>
      <point x="595" y="-60" type="line"/>
      <point x="405" y="-60" type="line"/>
    </contour>
    <contour>
      <point x="605" y="1706" type="line"/>
      <point x="795" y="1706" type="line"/>
      <point x="795" y="1896" type="line"/>
      <point x="605" y="1896" type="line"/>
    </contour>
    <contour>
      <point x="605" y="1350" type="line"/>
      <point x="795" y="1350" type="line"/>
      <point x="795" y="1540" type="line"/>
      <point x="605" y="1540" type="line"/>
    </contour>
    <contour>
      <point x="605" y="994" type="line"/>
      <point x="795" y="994" type="line"/>
      <point x="795" y="1184" type="line"/>
      <point x="605" y="1184" type="line"/>
    </contour>
    <contour>
      <point x="605" y="639" type="line"/>
      <point x="795" y="639" type="line"/>
      <point x="795" y="829" type="line"/>
      <point x="605" y="829" type="line"/>
    </contour>
    <contour>
      <point x="605" y="283" type="line"/>
      <point x="795" y="283" type="line"/>
      <point x="795" y="473" type="line"/>
      <point x="605" y="473" type="line"/>
    </contour>
    <contour>
      <point x="605" y="-73" type="line"/>
      <point x="795" y="-73" type="line"/>
      <point x="795" y="117" type="line"/>
      <point x="605" y="117" type="line"/>
    </contour>
    <contour>
      <point x="605" y="-429" type="line"/>
      <point x="795" y="-429" type="line"/>
      <point x="795" y="-239" type="line"/>
      <point x="605" y="-239" type="line"/>
    </contour>
    <contour>
      <point x="802" y="1538" type="line"/>
      <point x="992" y="1538" type="line"/>
      <point x="992" y="1728" type="line"/>
      <point x="802" y="1728" type="line"/>
    </contour>
    <contour>
      <point x="802" y="1181" type="line"/>
      <point x="992" y="1181" type="line"/>
      <point x="992" y="1371" type="line"/>
      <point x="802" y="1371" type="line"/>
    </contour>
    <contour>
      <point x="802" y="823" type="line"/>
      <point x="992" y="823" type="line"/>
      <point x="992" y="1013" type="line"/>
      <point x="802" y="1013" type="line"/>
    </contour>
    <contour>
      <point x="802" y="465" type="line"/>
      <point x="992" y="465" type="line"/>
      <point x="992" y="655" type="line"/>
      <point x="802" y="655" type="line"/>
    </contour>
    <contour>
      <point x="802" y="107" type="line"/>
      <point x="992" y="107" type="line"/>
      <point x="992" y="297" type="line"/>
      <point x="802" y="297" type="line"/>
    </contour>
    <contour>
      <point x="802" y="-250" type="line"/>
      <point x="992" y="-250" type="line"/>
      <point x="992" y="-60" type="line"/>
      <point x="802" y="-60" type="line"/>
    </contour>
    <contour>
      <point x="1002" y="1706" type="line"/>
      <point x="1192" y="1706" type="line"/>
      <point x="1192" y="1896" type="line"/>
      <point x="1002" y="1896" type="line"/>
    </contour>
    <contour>
      <point x="1002" y="1350" type="line"/>
      <point x="1192" y="1350" type="line"/>
      <point x="1192" y="1540" type="line"/>
      <point x="1002" y="1540" type="line"/>
    </contour>
    <contour>
      <point x="1002" y="994" type="line"/>
      <point x="1192" y="994" type="line"/>
      <point x="1192" y="1184" type="line"/>
      <point x="1002" y="1184" type="line"/>
    </contour>
    <contour>
      <point x="1002" y="639" type="line"/>
      <point x="1192" y="639" type="line"/>
      <point x="1192" y="829" type="line"/>
      <point x="1002" y="829" type="line"/>
    </contour>
    <contour>
      <point x="1002" y="283" type="line"/>
      <point x="1192" y="283" type="line"/>
      <point x="1192" y="473" type="line"/>
      <point x="1002" y="473" type="line"/>
    </contour>
    <contour>
      <point x="1002" y="-73" type="line"/>
      <point x="1192" y="-73" type="line"/>
      <point x="1192" y="117" type="line"/>
      <point x="1002" y="117" type="line"/>
    </contour>
    <contour>
      <point x="1002" y="-429" type="line"/>
      <point x="1192" y="-429" type="line"/>
      <point x="1192" y="-239" type="line"/>
      <point x="1002" y="-239" type="line"/>
    </contour>
    <contour>
      <point x="8" y="-608" type="line"/>
      <point x="198" y="-608" type="line"/>
      <point x="198" y="-418" type="line"/>
      <point x="8" y="-418" type="line"/>
    </contour>
    <contour>
      <point x="405" y="-608" type="line"/>
      <point x="595" y="-608" type="line"/>
      <point x="595" y="-418" type="line"/>
      <point x="405" y="-418" type="line"/>
    </contour>
    <contour>
      <point x="802" y="-608" type="line"/>
      <point x="992" y="-608" type="line"/>
      <point x="992" y="-418" type="line"/>
      <point x="802" y="-418" type="line"/>
    </contour>
    <contour>
      <point x="8" y="1538" type="line"/>
      <point x="198" y="1538" type="line"/>
      <point x="198" y="1728" type="line"/>
      <point x="8" y="1728" type="line"/>
    </contour>
  </outline>
</glyph>
<glyph name="whiteSquare" format="2">
  <advance width="1200"/>
  <unicode hex="25A1"/>
  <outline>
    <contour>
      <point x="72" y="188" type="line"/>
      <point x="1128" y="188" type="line"/>
      <point x="1128" y="1244" type="line"/>
      <point x="72" y="1244" type="line"/>
    </contour>
    <contour>
      <point x="268" y="378" type="line"/>
      <point x="268" y="1054" type="line"/>
      <point x="932" y="1054" type="line"/>
      <point x="932" y="378" type="line"/>
    </contour>
  </outline>
</glyph>
<glyph name="blackSmallSquare" format="2">
  <advance width="1200"/>
  <unicode hex="25AA"/>
  <outline>
    <contour>
      <point x="311" y="295" type="line"/>
      <point x="889" y="295" type="line"/>
      <point x="889" y="873" type="line"/>
      <point x="311" y="873" type="line"/>
    </contour>
  </outline>
</glyph>
<glyph name="whiteSmallSquare" format="2">
  <advance width="1200"/>
  <unicode hex="25AB"/>
  <outline>
    <contour>
      <point x="234" y="217" type="line"/>
      <point x="966" y="217" type="line"/>
      <point x="966" y="950" type="line"/>
      <point x="234" y="950" type="line"/>
    </contour>
    <contour>
      <point x="397" y="377" type="line"/>
      <point x="397" y="789" type="line"/>
      <point x="803" y="789" type="line"/>
      <point x="803" y="377" type="line"/>
    </contour>
  </outline>
</glyph>
<glyph name="inverseWhiteCircle" format="2">
  <advance width="1200"/>
  <unicode hex="25D9"/>
  <outline>
    <contour>
      <point x="22" y="138" type="line"/>
      <point x="1178" y="138" type="line"/>
      <point x="1178" y="1294" type="line"/>
      <point x="22" y="1294" type="line"/>
    </contour>
    <contour>
      <point x="600" y="160" type="curve" smooth="yes"/>
      <point x="287" y="160"/>
      <point x="44" y="403"/>
      <point x="44" y="716" type="curve" smooth="yes"/>
      <point x="44" y="1029"/>
      <point x="287" y="1272"/>
      <point x="600" y="1272" type="curve" smooth="yes"/>
      <point x="914" y="1272"/>
      <point x="1156" y="1030"/>
      <point x="1156" y="716" type="curve" smooth="yes"/>
      <point x="1156" y="402"/>
      <point x="914" y="160"/>
    </contour>
    <contour>
      <point x="600" y="348" type="curve" smooth="yes"/>
      <point x="807" y="348"/>
      <point x="964" y="507"/>
      <point x="964" y="716" type="curve" smooth="yes"/>
      <point x="964" y="925"/>
      <point x="807" y="1084"/>
      <point x="600" y="1084" type="curve" smooth="yes"/>
      <point x="393" y="1084"/>
      <point x="236" y="925"/>
      <point x="236" y="716" type="curve" smooth="yes"/>
      <point x="236" y="507"/>
      <point x="393" y="348"/>
    </contour>
  </outline>
</glyph>
<glyph name="Eng.loclNSM" format="2">
  <advance width="1200"/>
  <outline>
    <contour>
      <point x="689" y="-471" type="curve" smooth="yes"/>
      <point x="958" y="-471"/>
      <point x="1142" y="-277"/>
      <point x="1142" y="8" type="curve" smooth="yes"/>
      <point x="1142" y="1432" type="line"/>
      <point x="806" y="1432" type="line"/>
      <point x="806" y="924" type="line"/>
      <point x="826" y="596" type="line"/>
      <point x="817" y="596" type="line"/>
      <point x="398" y="1432" type="line"/>
      <point x="58" y="1432" type="line"/>
      <point x="58" y="0" type="line"/>
      <point x="394" y="0" type="line"/>
      <point x="394" y="551" type="line"/>
      <point x="374" y="879" type="line"/>
      <point x="383" y="879" type="line"/>
      <point x="824" y="0" type="line"/>
      <point x="798" y="154" type="line"/>
      <point x="798" y="2" type="line" smooth="yes"/>
      <point x="798" y="-85"/>
      <point x="751" y="-137"/>
      <point x="670" y="-137" type="curve" smooth="yes"/>
      <point x="612" y="-137"/>
      <point x="560" y="-116"/>
      <point x="505" y="-71" type="curve"/>
      <point x="320" y="-349" type="line"/>
      <point x="425" y="-430"/>
      <point x="549" y="-471"/>
    </contour>
  </outline>
</glyph>
<glyph name="Uhorn.alt" format="2">
  <advance width="1200"/>
  <outline>
    <contour>
      <point x="530" y="-35" type="curve" smooth="yes"/>
      <point x="818" y="-35"/>
      <point x="1010" y="155"/>
      <point x="1010" y="439" type="curve" smooth="yes"/>
      <point x="1010" y="1424" type="line"/>
      <point x="784" y="1292" type="line"/>
      <point x="829" y="1292" type="line" smooth="yes"/>
      <point x="1075" y="1292"/>
      <point x="1230" y="1397"/>
      <point x="1230" y="1614" type="curve" smooth="yes"/>
      <point x="1230" y="1676"/>
      <point x="1218" y="1740"/>
      <point x="1197" y="1803" type="curve"/>
      <point x="879" y="1710" type="line"/>
      <point x="896" y="1653"/>
      <point x="907" y="1591"/>
      <point x="907" y="1541" type="curve" smooth="yes"/>
      <point x="907" y="1467"/>
      <point x="875" y="1432"/>
      <point x="795" y="1432" type="curve" smooth="yes"/>
      <point x="684" y="1432" type="line"/>
      <point x="684" y="453" type="line" smooth="yes"/>
      <point x="684" y="351"/>
      <point x="626" y="289"/>
      <point x="532" y="289" type="curve" smooth="yes"/>
      <point x="438" y="289"/>
      <point x="380" y="351"/>
      <point x="380" y="453" type="curve" smooth="yes"/>
      <point x="380" y="1432" type="line"/>
      <point x="50" y="1432" type="line"/>
      <point x="50" y="439" type="line" smooth="yes"/>
      <point x="50" y="154"/>
      <point x="241" y="-35"/>
    </contour>
  </outline>
</glyph>
<glyph name="brevecomb_hookabovecomb" format="2">
  <anchor x="0" y="1054" name="_top"/>
  <outline>
    <contour>
      <point x="0" y="1164" type="curve" smooth="yes"/>
      <point x="248" y="1164"/>
      <point x="424" y="1324"/>
      <point x="424" y="1553" type="curve" smooth="yes"/>
      <point x="424" y="1560" type="line"/>
      <point x="206" y="1560" type="line"/>
      <point x="206" y="1550" type="line" smooth="yes"/>
      <point x="206" y="1432"/>
      <point x="133" y="1359"/>
      <point x="0" y="1359" type="curve" smooth="yes"/>
      <point x="-133" y="1359"/>
      <point x="-206" y="1432"/>
      <point x="-206" y="1550" type="curve" smooth="yes"/>
      <point x="-206" y="1560" type="line"/>
      <point x="-424" y="1560" type="line"/>
      <point x="-424" y="1553" type="line" smooth="yes"/>
      <point x="-424" y="1324"/>
      <point x="-248" y="1164"/>
    </contour>
    <contour>
      <point x="-71" y="1480" type="line"/>
      <point x="113" y="1502"/>
      <point x="220" y="1599"/>
      <point x="220" y="1743" type="curve" smooth="yes"/>
      <point x="220" y="1894"/>
      <point x="105" y="1989"/>
      <point x="-78" y="1989" type="curve" smooth="yes"/>
      <point x="-152" y="1989"/>
      <point x="-220" y="1978"/>
      <point x="-293" y="1954" type="curve"/>
      <point x="-245" y="1766" type="line"/>
      <point x="-189" y="1782"/>
      <point x="-139" y="1789"/>
      <point x="-84" y="1789" type="curve" smooth="yes"/>
      <point x="-4" y="1789"/>
      <point x="32" y="1769"/>
      <point x="32" y="1723" type="curve" smooth="yes"/>
      <point x="32" y="1680"/>
      <point x="-8" y="1656"/>
      <point x="-90" y="1650" type="curve"/>
    </contour>
  </outline>
</glyph>
<glyph name="brevecomb_tildecomb" format="2">
  <guideline y="1989" name=" [locked]"/>
  <anchor x="0" y="1054" name="_top"/>
  <outline>
    <contour>
      <point x="0" y="1164" type="curve" smooth="yes"/>
      <point x="235" y="1164"/>
      <point x="394" y="1316"/>
      <point x="394" y="1540" type="curve" smooth="yes"/>
      <point x="394" y="1547" type="line"/>
      <point x="164" y="1547" type="line"/>
      <point x="164" y="1537" type="line" smooth="yes"/>
      <point x="164" y="1428"/>
      <point x="101" y="1361"/>
      <point x="0" y="1361" type="curve" smooth="yes"/>
      <point x="-101" y="1361"/>
      <point x="-164" y="1428"/>
      <point x="-164" y="1537" type="curve" smooth="yes"/>
      <point x="-164" y="1547" type="line"/>
      <point x="-394" y="1547" type="line"/>
      <point x="-394" y="1540" type="line" smooth="yes"/>
      <point x="-394" y="1316"/>
      <point x="-235" y="1164"/>
    </contour>
    <contour>
      <point x="222" y="1649" type="curve" smooth="yes"/>
      <point x="357" y="1649"/>
      <point x="427" y="1735"/>
      <point x="427" y="1907" type="curve" smooth="yes"/>
      <point x="427" y="1995" type="line"/>
      <point x="197" y="1995" type="line"/>
      <point x="197" y="1937" type="line" smooth="yes"/>
      <point x="197" y="1892"/>
      <point x="174" y="1868"/>
      <point x="137" y="1868" type="curve" smooth="yes"/>
      <point x="100" y="1868"/>
      <point x="66" y="1883"/>
      <point x="-13" y="1932" type="curve" smooth="yes"/>
      <point x="-80" y="1974"/>
      <point x="-138" y="1999"/>
      <point x="-207" y="1999" type="curve" smooth="yes"/>
      <point x="-344" y="1999"/>
      <point x="-427" y="1908"/>
      <point x="-427" y="1741" type="curve" smooth="yes"/>
      <point x="-427" y="1653" type="line"/>
      <point x="-197" y="1653" type="line"/>
      <point x="-197" y="1710" type="line" smooth="yes"/>
      <point x="-197" y="1754"/>
      <point x="-172" y="1779"/>
      <point x="-132" y="1779" type="curve" smooth="yes"/>
      <point x="-89" y="1779"/>
      <point x="-54" y="1763"/>
      <point x="25" y="1714" type="curve" smooth="yes"/>
      <point x="93" y="1672"/>
      <point x="152" y="1649"/>
    </contour>
  </outline>
</glyph>
<glyph name="circumflexcomb_acutecomb" format="2">
  <anchor x="0" y="1054" name="_top"/>
  <outline>
    <contour>
      <point x="-488" y="1164" type="line"/>
      <point x="-152" y="1164" type="line"/>
      <point x="20" y="1379" type="line"/>
      <point x="-20" y="1379" type="line"/>
      <point x="152" y="1164" type="line"/>
      <point x="488" y="1164" type="line"/>
      <point x="488" y="1178" type="line"/>
      <point x="130" y="1538" type="line"/>
      <point x="-130" y="1538" type="line"/>
      <point x="-488" y="1178" type="line"/>
    </contour>
    <contour>
      <point x="244" y="1473" type="line"/>
      <point x="444" y="1473" type="line"/>
      <point x="670" y="1893" type="line"/>
      <point x="670" y="1907" type="line"/>
      <point x="392" y="1907" type="line"/>
      <point x="244" y="1487" type="line"/>
    </contour>
  </outline>
</glyph>
<glyph name="circumflexcomb_hookabovecomb" format="2">
  <guideline x="-460" y="1190" angle="0"/>
  <anchor x="0" y="1054" name="_top"/>
  <outline>
    <contour>
      <point x="-488" y="1164" type="line"/>
      <point x="-152" y="1164" type="line"/>
      <point x="20" y="1379" type="line"/>
      <point x="-20" y="1379" type="line"/>
      <point x="152" y="1164" type="line"/>
      <point x="488" y="1164" type="line"/>
      <point x="488" y="1178" type="line"/>
      <point x="130" y="1538" type="line"/>
      <point x="-130" y="1538" type="line"/>
      <point x="-488" y="1178" type="line"/>
    </contour>
    <contour>
      <point x="338" y="1412" type="line"/>
      <point x="513" y="1431"/>
      <point x="616" y="1533"/>
      <point x="616" y="1688" type="curve" smooth="yes"/>
      <point x="616" y="1841"/>
      <point x="499" y="1942"/>
      <point x="320" y="1942" type="curve" smooth="yes"/>
      <point x="244" y="1942"/>
      <point x="178" y="1931"/>
      <point x="114" y="1908" type="curve"/>
      <point x="159" y="1720" type="line"/>
      <point x="211" y="1735"/>
      <point x="263" y="1742"/>
      <point x="314" y="1742" type="curve" smooth="yes"/>
      <point x="388" y="1742"/>
      <point x="426" y="1718"/>
      <point x="426" y="1671" type="curve" smooth="yes"/>
      <point x="426" y="1627"/>
      <point x="388" y="1602"/>
      <point x="312" y="1596" type="curve"/>
    </contour>
  </outline>
</glyph>
<glyph name="g.ss01" format="2">
  <advance width="1200"/>
  <outline>
    <contour>
      <point x="604" y="-461" type="curve" smooth="yes"/>
      <point x="903" y="-461"/>
      <point x="1093" y="-272"/>
      <point x="1093" y="26" type="curve" smooth="yes"/>
      <point x="1093" y="1054" type="line"/>
      <point x="768" y="1054" type="line"/>
      <point x="768" y="918" type="line"/>
      <point x="758" y="918" type="line"/>
      <point x="700" y="1035"/>
      <point x="614" y="1088"/>
      <point x="483" y="1088" type="curve" smooth="yes"/>
      <point x="244" y="1088"/>
      <point x="81" y="874"/>
      <point x="81" y="560" type="curve" smooth="yes"/>
      <point x="81" y="554" type="line" smooth="yes"/>
      <point x="81" y="236"/>
      <point x="249" y="23"/>
      <point x="503" y="23" type="curve" smooth="yes"/>
      <point x="625" y="23"/>
      <point x="728" y="90"/>
      <point x="775" y="211" type="curve"/>
      <point x="785" y="211" type="line"/>
      <point x="785" y="14" type="line" smooth="yes"/>
      <point x="785" y="-109"/>
      <point x="714" y="-183"/>
      <point x="596" y="-183" type="curve" smooth="yes"/>
      <point x="512" y="-183"/>
      <point x="444" y="-145"/>
      <point x="388" y="-72" type="curve"/>
      <point x="184" y="-289" type="line"/>
      <point x="268" y="-398"/>
      <point x="422" y="-461"/>
    </contour>
    <contour>
      <point x="591" y="302" type="curve" smooth="yes"/>
      <point x="484" y="302"/>
      <point x="422" y="395"/>
      <point x="422" y="555" type="curve" smooth="yes"/>
      <point x="422" y="559" type="line" smooth="yes"/>
      <point x="422" y="718"/>
      <point x="484" y="809"/>
      <point x="592" y="809" type="curve" smooth="yes"/>
      <point x="697" y="809"/>
      <point x="762" y="712"/>
      <point x="762" y="559" type="curve" smooth="yes"/>
      <point x="762" y="555" type="line" smooth="yes"/>
      <point x="762" y="400"/>
      <point x="697" y="302"/>
    </contour>
  </outline>
</glyph>
